<svg xmlns="http://www.w3.org/2000/svg" viewBox="0 0 24 24"><title>GitHub icon</title><path d="M12 .3C5.37.3 0 5.67 0 12.3c0 5.3 3.44 9.8 8.2 11.38.6.12.83-.26.83-.57 0-.28 0-1.03-.02-2.03-3.33.72-4.03-1.6-4.03-1.6-.55-1.4-1.34-1.77-1.34-1.77-1.08-.74.1-.73.1-.73 1.2.1 1.83 1.24 1.83 1.24 1.07 1.84 2.8 1.3 3.5 1 .1-.77.4-1.3.75-1.6-2.66-.3-5.46-1.33-5.46-5.93 0-1.3.47-2.38 1.24-3.22-.14-.3-.54-1.52.1-3.18 0 0 1-.32 3.3 1.23.96-.26 1.98-.4 3-.4s2.04.14 3 .4c2.28-1.55 3.3-1.23 3.3-1.23.63 1.66.23 2.88.1 3.18.77.84 1.24 1.9 1.24 3.22 0 4.6-2.8 5.63-5.48 5.92.42.35.8 1.1.8 2.2 0 1.62 0 2.9 0 3.3 0 .3.2.7.82.57C20.56 22.1 24 17.6 24 12.3c0-6.63-5.37-12-12-12"/></svg>