<svg xmlns="http://www.w3.org/2000/svg" width="210mm" height="210mm" viewBox="0 0 210 210"><defs><clipPath id="a"><path d="M0 552h530.97V0H0z"/></clipPath></defs><g><g><path fill="#231f20" d="M-498.5 853.9h914.34V378.65H-498.5z"/><g><g clip-path="url(#a)" transform="matrix(1.722 0 0 -1.722 -498.498 853.901)"><g><path fill="#1b1817" fill-rule="evenodd" d="M152.6 444.55c-9 0-16.28-7.3-16.28-16.3 0-7.2 4.67-13.3 11.14-15.45.82-.15 1.1.35 1.1.78 0 .4 0 1.42 0 2.77-4.54-.98-5.5 2.2-5.5 2.2-.74 1.87-1.8 2.37-1.8 2.37-1.48 1 .1 1 .1 1 1.64-.12 2.5-1.7 2.5-1.7 1.45-2.48 3.8-1.76 4.74-1.34.15 1.05.57 1.77 1.04 2.18-3.62.4-7.42 1.8-7.42 8.05 0 1.8.63 3.24 1.67 4.38-.17.4-.73 2.07.15 4.3 0 0 1.37.45 4.48-1.66 1.3.36 2.7.54 4.08.55 1.4 0 2.8-.2 4.1-.55 3.1 2.1 4.46 1.67 4.46 1.67.9-2.25.33-3.9.17-4.32 1.04-1.14 1.67-2.6 1.67-4.37 0-6.25-3.8-7.63-7.44-8.03.6-.5 1.1-1.5 1.1-3.02 0-2.17 0-3.93 0-4.47 0-.43.28-.94 1.1-.78 6.48 2.16 11.14 8.26 11.14 15.46 0 9-7.3 16.3-16.3 16.3"/></g><g><path fill="#1b1817" fill-rule="evenodd" d="M350.6 493.55c-33.34 0-60.38-27.03-60.38-60.38 0-26.68 17.3-49.32 41.3-57.3 3.02-.56 4.12 1.3 4.12 2.9 0 1.44-.05 6.2-.08 11.24-16.8-3.64-20.34 7.14-20.34 7.14-2.75 6.98-6.7 8.83-6.7 8.83-5.5 3.75.4 3.68.4 3.68 6.07-.43 9.26-6.23 9.26-6.23 5.4-9.23 14.13-6.56 17.57-5.02.55 3.9 2.1 6.57 3.84 8.08-13.42 1.52-27.52 6.7-27.52 29.84 0 6.6 2.35 11.98 6.22 16.2-.63 1.53-2.7 7.67.58 16 0 0 5.07 1.6 16.6-6.2 4.83 1.34 10 2 15.13 2.03 5.14-.02 10.3-.7 15.14-2.03 11.52 7.8 16.6 6.2 16.6 6.2 3.27-8.33 1.2-14.47.58-16 3.87-4.22 6.2-9.6 6.2-16.2 0-23.2-14.1-28.3-27.56-29.8 2.17-1.87 4.1-5.54 4.1-11.18 0-8.08-.07-14.58-.07-16.57 0-1.6 1.07-3.5 4.13-2.9 24 8 41.27 30.62 41.27 57.3 0 33.35-27.04 60.38-60.4 60.38"/></g><g><path fill="#1b1817" d="M313.1 406.85c-.14-.3-.6-.4-1.04-.18-.44.2-.7.6-.54.9.13.3.6.4 1.04.2.43-.2.68-.62.53-.92"/></g><g><path fill="#1b1817" d="M315.54 404.12c-.3-.26-.85-.14-1.23.28-.4.42-.46 1-.17 1.26.3.26.84.14 1.24-.28.4-.43.47-1 .17-1.26"/></g><g><path fill="#1b1817" d="M317.92 400.65c-.37-.26-.98-.02-1.35.52-.37.53-.37 1.18 0 1.44.38.26.98.03 1.36-.5.37-.55.37-1.2 0-1.45"/></g><g><path fill="#1b1817" d="M321.18 397.3c-.33-.38-1.03-.28-1.55.22-.53.48-.67 1.17-.34 1.54.32.37 1.03.26 1.55-.23.53-.5.68-1.18.33-1.54"/></g><g><path fill="#1b1817" d="M325.68 395.33c-.14-.47-.82-.68-1.5-.48-.7.2-1.14.76-1 1.24.14.46.83.7 1.5.47.7-.2 1.14-.75 1-1.24"/></g><g><path fill="#1b1817" d="M330.62 394.97c.02-.5-.56-.9-1.28-.92-.72 0-1.3.4-1.3.88 0 .5.56.9 1.28.92.72.02 1.3-.38 1.3-.88"/></g><g><path fill="#1b1817" d="M335.22 395.75c.1-.48-.4-.98-1.12-1.1-.7-.14-1.35.16-1.44.64-.1.5.42 1 1.12 1.12.7.12 1.35-.17 1.44-.67"/></g><g><path fill="none" stroke="#3a7fc3" stroke-miterlimit="10" d="M224.9 499.5v-.5" stroke-linecap="round"/></g><g><path fill="none" stroke="#3a7fc3" stroke-miterlimit="10" d="M224.9 497V363" stroke-linecap="round" stroke-dasharray="1, 2"/></g><g><path fill="none" stroke="#3a7fc3" stroke-miterlimit="10" d="M224.9 362v-.5" stroke-linecap="round"/></g><g><path fill="#176fc1" d="M133.28 347.48c-.38.28-.87.4-1.46.4-.24 0-.48 0-.7-.06-.24-.05-.45-.13-.63-.24-.2-.1-.33-.26-.44-.45-.1-.2-.16-.42-.16-.7 0-.26.08-.48.23-.64.16-.18.37-.3.63-.4.26-.12.55-.2.88-.27.33-.07.66-.14 1-.22.34-.07.67-.17 1-.28.33-.1.62-.25.88-.43.26-.2.47-.43.63-.7.15-.3.23-.64.23-1.07 0-.45-.1-.84-.3-1.17-.2-.32-.47-.58-.8-.8-.3-.2-.67-.34-1.06-.43-.4-.1-.8-.14-1.2-.14-.47 0-.92.05-1.35.17-.43.12-.8.3-1.13.55-.32.24-.58.55-.76.93-.2.38-.3.83-.3 1.35h1.1c0-.36.06-.67.2-.93s.33-.47.56-.64c.22-.17.5-.3.8-.37.3-.08.6-.12.93-.12.26 0 .5.02.77.07.26.06.5.14.7.26.2.1.38.27.5.47.14.2.2.46.2.77 0 .3-.08.53-.23.72-.15.18-.36.33-.62.45-.26.1-.55.2-.88.28-.33.07-.66.15-1 .22-.34.08-.67.17-1 .27-.33.1-.62.23-.88.4-.26.16-.47.37-.63.63-.16.26-.24.58-.24.98 0 .43.1.8.26 1.12.18.3.4.57.7.78.3.2.63.35 1 .45.37.1.75.15 1.15.15.44 0 .84-.05 1.22-.15.37-.1.7-.27.98-.5.28-.22.5-.5.67-.84.17-.34.26-.75.27-1.22h-1.08c-.06.62-.28 1.06-.66 1.34"/></g><g><path fill="#176fc1" d="M137.55 346.3v-.93h.03c.46.7 1.13 1.06 2 1.06.4 0 .73-.08 1.05-.24.3-.17.53-.44.66-.83.2.34.47.6.8.78.35.2.72.28 1.13.28.3 0 .6-.03.85-.1s.46-.18.64-.32c.18-.13.32-.32.42-.55.1-.23.15-.5.15-.82v-4.55h-1.03v4.07c0 .2 0 .37-.04.54-.04.16-.1.3-.18.43-.1.12-.2.22-.37.3-.16.06-.36.1-.6.1-.5 0-.9-.14-1.2-.43-.28-.3-.43-.67-.43-1.15v-3.87h-1.02v4.07c0 .2 0 .38-.05.55-.04.17-.1.32-.2.44-.07.12-.2.22-.34.3-.15.06-.34.1-.57.1-.3 0-.55-.07-.76-.2-.2-.1-.38-.25-.5-.42-.14-.17-.24-.34-.3-.52s-.1-.33-.1-.45v-3.87h-1v6.2z"/></g><g><path fill="#176fc1" d="M150.17 343.08c-.2-.05-.43-.08-.66-.1-.22-.04-.45-.07-.68-.1-.23-.04-.44-.1-.62-.18-.2-.08-.34-.2-.45-.34-.12-.15-.18-.35-.18-.6 0-.18.04-.32.1-.44.07-.1.16-.2.27-.28.1-.07.24-.12.38-.15.15-.05.3-.06.45-.06.34 0 .63.04.87.14s.43.2.6.34c.14.14.25.3.32.46.07.16.1.32.1.46v1.05c-.12-.1-.3-.18-.5-.22m1.43-3.13c-.27 0-.48.07-.64.22-.15.15-.23.4-.23.73-.28-.34-.6-.58-.98-.73-.37-.15-.77-.22-1.2-.22-.28 0-.55.03-.8.1-.24.05-.46.15-.65.3-.2.13-.34.3-.44.53-.1.22-.17.5-.17.8 0 .35.05.64.17.86.12.23.28.4.48.55.2.13.42.23.67.3.25.08.5.14.77.2.27.04.54.08.8.1.24.04.47.08.66.13.2.05.34.13.45.23.13.1.18.25.18.44 0 .22-.04.4-.12.54-.1.13-.2.24-.33.3-.13.08-.28.13-.44.15-.18.02-.34.03-.5.03-.43 0-.8-.08-1.08-.25-.3-.16-.44-.47-.47-.93h-1.02c.02.4.1.7.24.98.15.26.34.47.58.64.24.16.52.28.83.35.3.07.64.1.98.1.28 0 .56 0 .84-.05.27-.04.52-.12.75-.25.22-.12.4-.3.54-.52.12-.22.2-.5.2-.87v-3.2c0-.24 0-.4.03-.52.03-.1.12-.16.28-.16.1 0 .2.02.33.06v-.8c-.18-.1-.42-.15-.74-.15"/></g><path fill="#176fc1" d="M154.35 340.08h-1.02v8.57h1.02z"/><path fill="#176fc1" d="M157.02 340.08H156v8.57h1.02z"/><g><path fill="#176fc1" d="M101.85 331v.9h1.05v.9c0 .5.14.9.44 1.16.3.26.7.4 1.27.4.1 0 .22-.02.34-.04.13 0 .24-.04.33-.07v-.9c-.08.04-.18.07-.28.08-.12 0-.2.02-.3.02-.25 0-.44-.05-.58-.15-.13-.1-.2-.28-.2-.55v-.86h1.2v-.9h-1.2v-5.32h-1.02v5.3z"/></g><g><path fill="#176fc1" d="M106.92 327.78c.1-.3.24-.54.42-.74.17-.2.38-.34.62-.45.23-.1.48-.16.75-.16s.52.05.76.15c.23.1.44.25.6.44.2.2.33.44.43.74.1.3.14.62.14 1 0 .37-.05.7-.15 1-.1.3-.25.54-.43.74-.17.2-.38.35-.6.45-.25.1-.5.16-.76.16s-.5-.05-.74-.16c-.24-.1-.45-.25-.62-.45-.18-.2-.32-.45-.42-.74-.1-.3-.15-.63-.15-1 0-.38.05-.7.15-1m-1.03 2.28c.1.4.3.74.56 1.03.26.28.57.5.95.68.4.17.82.25 1.3.25.5 0 .94-.08 1.3-.25.38-.17.7-.4.95-.7.26-.28.45-.63.58-1.02.12-.4.2-.83.2-1.28 0-.46-.08-.88-.2-1.27-.13-.4-.32-.73-.58-1.02-.26-.3-.57-.52-.94-.68-.36-.17-.8-.25-1.3-.25-.48 0-.9.08-1.3.25-.37.16-.68.4-.94.68-.25.3-.45.63-.57 1.03-.14.4-.2.82-.2 1.28 0 .45.06.88.2 1.28"/></g><g><path fill="#176fc1" d="M113.84 331.9v-1.32h.03c.24.5.55.87.9 1.1.37.25.82.36 1.38.35v-1.08c-.4 0-.76-.06-1.05-.17-.3-.1-.52-.27-.7-.5-.17-.2-.3-.47-.38-.78-.08-.3-.12-.66-.12-1.06v-2.76h-1.02v6.2z"/></g><g><path fill="#176fc1" d="M122.73 325.68v6.1h-2.2v.8c.28 0 .56.04.84.08.27.04.5.12.73.25.22.13.4.3.56.5.15.2.26.47.3.8h.8v-8.52z"/></g><g><path fill="#176fc1" d="M128.83 330.1c-.22-.1-.4-.23-.55-.4-.15-.18-.27-.38-.34-.62-.08-.23-.12-.48-.12-.75 0-.26.04-.5.12-.74.08-.24.2-.44.34-.6.15-.18.34-.3.56-.4.22-.1.47-.16.75-.16.27 0 .5.05.72.15.22.1.4.23.54.4.14.18.25.38.33.6.06.24.1.47.1.72 0 .27-.03.52-.1.75-.07.24-.17.44-.32.6-.14.2-.32.32-.54.43-.2.1-.47.15-.75.15-.3 0-.55-.05-.77-.15m1.85 2.84c-.25.23-.58.35-1 .35-.42 0-.77-.12-1.03-.33-.26-.2-.47-.48-.62-.8-.15-.33-.25-.68-.3-1.05-.06-.38-.1-.73-.1-1.06l.02-.02c.24.4.54.67.9.85.35.17.76.25 1.23.25.4 0 .77-.07 1.1-.2.32-.15.6-.34.8-.6.23-.24.4-.53.52-.86.12-.35.18-.7.18-1.1 0-.32-.05-.64-.14-.98-.1-.33-.26-.64-.48-.92-.22-.27-.5-.5-.87-.68-.38-.18-.83-.27-1.36-.27-.63 0-1.14.13-1.53.38-.37.26-.67.6-.87 1-.2.4-.35.83-.42 1.3-.06.5-.1.95-.1 1.4 0 .58.06 1.15.16 1.7s.27 1.03.5 1.46c.25.4.57.75.97 1 .4.26.9.4 1.5.4.72 0 1.28-.2 1.7-.57.4-.37.65-.9.7-1.6h-1c-.06.37-.2.68-.45.9"/></g><g><path fill="#176fc1" d="M138.32 329.68c-.08.28-.2.52-.35.74-.16.22-.36.4-.6.52-.25.13-.53.2-.86.2-.33 0-.63-.08-.87-.2-.24-.15-.43-.33-.58-.55-.16-.23-.27-.48-.33-.76-.07-.28-.1-.56-.1-.85 0-.3.03-.6.1-.9.07-.28.2-.53.34-.74.16-.22.36-.4.6-.52.26-.14.56-.2.9-.2.36 0 .66.07.9.2.23.14.42.32.56.54.15.23.25.48.3.77.08.3.1.58.1.9 0 .27-.03.56-.1.83m-3.67 2.2v-.84h.02c.17.35.43.6.8.75.36.15.75.23 1.18.23.48 0 .9-.1 1.26-.26.36-.18.66-.42.9-.72.23-.3.4-.64.53-1.04.12-.38.18-.8.18-1.23 0-.44-.05-.86-.17-1.25-.1-.4-.3-.74-.52-1.03-.23-.3-.53-.53-.88-.7-.36-.17-.77-.25-1.24-.25-.16 0-.33.02-.5.05-.2.03-.4.08-.57.15-.17.08-.35.17-.5.3-.18.12-.3.28-.43.46h-.02v-3.18h-1.02v8.57z"/></g><g><path fill="#176fc1" d="M140.22 331.9h1.3l1.5-2.2 1.54 2.2h1.23l-2.15-2.87 2.4-3.35h-1.3l-1.74 2.57-1.7-2.57h-1.25l2.33 3.27z"/></g><path fill="#176fc1" d="M150.22 328.54h-3.46v.96h3.47z"/><g><path fill="#176fc1" d="M154.08 325.68v6.1h-2.2v.8c.28 0 .56.04.83.08.28.04.53.12.75.25.22.13.4.3.56.5.16.2.26.47.32.8h.78v-8.52z"/></g><g><path fill="#176fc1" d="M158.16 332.38c.1.37.28.68.52.95.24.27.53.48.88.63.35.15.75.23 1.2.23.37 0 .72-.06 1.04-.17.32-.1.6-.27.85-.47.24-.2.43-.46.57-.76.14-.3.2-.66.2-1.06 0-.38-.05-.7-.17-1-.12-.28-.27-.54-.46-.77-.2-.23-.42-.43-.67-.62-.25-.18-.5-.36-.77-.52-.26-.16-.53-.32-.8-.48-.25-.16-.5-.32-.72-.5-.22-.17-.4-.36-.56-.57-.16-.2-.26-.43-.3-.7h4.36v-.9h-5.55c.03.5.12.93.26 1.3.14.35.3.66.53.92.2.27.45.5.72.7.27.2.56.38.85.56.36.23.68.43.95.62.27.2.5.38.68.57.18.2.32.4.4.62.1.23.15.5.15.78 0 .23-.05.44-.14.63-.07.2-.2.35-.34.5-.15.13-.32.23-.52.3-.2.07-.4.1-.64.1-.3 0-.55-.05-.76-.18-.2-.12-.4-.28-.52-.48-.14-.2-.24-.43-.3-.68-.06-.25-.08-.5-.07-.76h-1.02c-.03.43.02.83.13 1.2"/></g><g><path fill="#176fc1" d="M165.78 328.8c.02-.4.1-.77.2-1.12.1-.35.28-.64.52-.88s.57-.36 1-.36c.44 0 .77.12 1 .36.25.24.43.53.54.88.1.35.17.72.2 1.1 0 .4.02.77.02 1.1 0 .2 0 .43 0 .68 0 .25-.03.5-.07.76-.04.25-.1.5-.16.73-.07.24-.17.45-.3.63-.14.18-.3.33-.5.44-.2.1-.45.17-.73.17-.28 0-.53-.07-.73-.18-.2-.1-.36-.26-.5-.44-.13-.18-.23-.4-.3-.63-.06-.24-.1-.48-.15-.73-.04-.26-.06-.5-.06-.76 0-.25 0-.48 0-.7 0-.3 0-.67.02-1.07m-1.08 2.03c0 .34.05.66.12.98.06.33.15.64.27.93.1.28.28.54.5.75.2.22.46.4.77.52.32.12.7.2 1.14.2.45 0 .82-.08 1.14-.2.32-.13.58-.3.8-.52.2-.2.36-.47.48-.75.12-.3.2-.6.27-.92.06-.3.1-.63.1-.97.03-.34.04-.66.04-.97 0-.32 0-.64-.03-.97 0-.35-.04-.68-.1-1-.07-.32-.16-.62-.28-.9-.12-.3-.3-.54-.5-.75-.2-.22-.46-.4-.77-.5-.32-.14-.7-.2-1.14-.2-.43 0-.8.06-1.13.2-.3.1-.58.28-.78.5-.22.2-.4.46-.5.75-.13.28-.22.58-.28.9-.07.32-.1.65-.12 1-.02.32-.03.64-.03.96 0 .3 0 .63.03.97"/></g><g><path fill="#176fc1" d="M176.33 329.68c-.07.28-.2.52-.35.74-.15.22-.35.4-.6.52-.24.13-.53.2-.85.2-.35 0-.64-.08-.88-.2-.24-.15-.44-.33-.6-.55-.14-.23-.25-.48-.32-.76s-.1-.56-.1-.85c0-.3.04-.6.1-.9.08-.28.2-.53.35-.74.16-.22.36-.4.6-.52.25-.14.55-.2.9-.2.36 0 .65.07.9.2.22.14.4.32.56.54.14.23.25.48.3.77.07.3.1.58.1.9 0 .27-.03.56-.1.83m-3.67 2.2v-.84h.02c.16.35.42.6.78.75.36.15.76.23 1.2.23.47 0 .9-.1 1.24-.26.36-.18.66-.42.9-.72.23-.3.4-.64.53-1.04.12-.38.18-.8.18-1.23 0-.44-.06-.86-.18-1.25-.1-.4-.3-.74-.53-1.03-.23-.3-.53-.53-.88-.7-.36-.17-.78-.25-1.25-.25-.16 0-.33.02-.52.05-.18.03-.37.08-.55.15-.2.08-.36.17-.53.3-.16.12-.3.28-.4.46h-.03v-3.18h-1.02v8.57z"/></g><g><path fill="#176fc1" d="M178.23 331.9h1.3l1.5-2.2 1.55 2.2h1.22l-2.14-2.87 2.4-3.35h-1.3l-1.73 2.57-1.73-2.57h-1.24l2.33 3.27z"/></g><g><path fill="#176fc1" d="M335.63 348.65v-7.6h4.54v-.97h-5.68v8.57z"/></g><g><path fill="#176fc1" d="M344.33 343.08c-.2-.05-.42-.08-.65-.1-.23-.04-.46-.07-.7-.1-.22-.04-.43-.1-.62-.18-.18-.08-.33-.2-.44-.34-.12-.15-.18-.35-.18-.6 0-.18.04-.32.1-.44.07-.1.16-.2.27-.28.1-.07.24-.12.4-.15.14-.05.3-.06.44-.06.34 0 .63.05.87.14.24.1.44.2.6.34.14.15.26.3.33.46.07.16.1.32.1.46v1.05c-.12-.1-.3-.18-.5-.22m1.43-3.13c-.26 0-.47.07-.63.22-.15.15-.23.4-.23.73-.28-.34-.6-.58-.98-.73-.37-.15-.77-.22-1.2-.22-.3 0-.55.03-.8.1-.25.05-.47.15-.65.3-.2.13-.34.3-.45.53-.1.22-.16.5-.16.8 0 .35.06.64.18.86.12.23.28.4.48.55.2.13.4.23.67.3.24.08.5.14.76.2.28.04.55.08.8.1.25.04.47.08.67.13.2.06.34.13.45.23.1.1.17.25.17.44 0 .22-.04.4-.13.54-.08.13-.2.24-.32.3-.13.08-.28.13-.45.15-.16.02-.32.03-.48.03-.43 0-.8-.08-1.08-.24-.3-.18-.46-.5-.48-.95h-1.02c.02.4.1.7.24.98.14.26.34.48.58.64.24.16.5.28.82.35.32.07.65.1 1 .1.27 0 .55 0 .82-.05.28-.04.53-.12.75-.24.24-.13.42-.3.55-.53.14-.22.2-.5.2-.87v-3.2c0-.23.02-.4.05-.52.03-.1.12-.16.28-.16.1 0 .2.02.3.06v-.8c-.16-.1-.4-.15-.72-.15"/></g><g><path fill="#176fc1" d="M348.36 346.3v-1.32h.03c.24.5.54.87.9 1.12.36.23.82.35 1.37.33v-1.08c-.4 0-.76-.05-1.05-.17-.28-.1-.52-.27-.7-.5-.17-.2-.3-.47-.38-.78-.08-.3-.1-.66-.1-1.06v-2.76h-1.04v6.2z"/></g><g><path fill="#176fc1" d="M354.45 341.12c.24.14.43.32.57.55.15.23.25.5.32.78s.1.57.1.86c0 .28-.03.55-.1.82-.06.26-.16.5-.3.7-.14.22-.32.4-.54.52-.23.13-.5.2-.82.2-.33 0-.6-.07-.84-.2-.23-.12-.42-.28-.57-.5-.15-.2-.25-.44-.32-.7-.07-.3-.1-.57-.1-.87 0-.28.02-.55.08-.84.05-.28.15-.53.3-.76.12-.23.3-.4.53-.55.22-.14.5-.2.84-.2.33 0 .62.06.85.2m1.3-2.8c-.46-.5-1.2-.75-2.18-.75-.3 0-.58.04-.88.1-.3.06-.58.17-.83.3-.24.16-.44.34-.6.58-.16.23-.25.5-.26.85h1.02c0-.18.07-.34.18-.47.1-.13.24-.23.4-.3.15-.1.32-.15.5-.2.2-.02.36-.04.53-.04.34 0 .62.05.85.16.24.12.43.28.58.5.15.2.26.43.33.72.06.3.1.6.1.95v.4h-.03c-.18-.38-.44-.66-.8-.84-.36-.2-.73-.28-1.13-.28-.47 0-.87.1-1.2.25-.36.17-.65.4-.88.68-.23.3-.4.62-.52 1s-.17.78-.17 1.2c0 .37.04.75.14 1.14.1.38.27.73.5 1.05.2.3.5.57.88.78.36.2.82.3 1.35.3.4 0 .75-.1 1.08-.26.34-.17.6-.43.78-.77v.9h.97v-5.7c0-1-.23-1.77-.7-2.27"/></g><g><path fill="#176fc1" d="M362.13 344.46c-.1.22-.2.4-.37.56-.15.16-.34.28-.55.37-.2.08-.43.13-.7.13-.26 0-.5-.05-.7-.14-.22-.1-.4-.23-.55-.4-.15-.15-.27-.33-.36-.54-.1-.22-.15-.44-.17-.68h3.57c-.02.24-.07.47-.17.68m.25-3.98c-.46-.35-1.05-.53-1.75-.53-.5 0-.93.08-1.3.24-.36.15-.66.37-.9.66-.26.3-.44.63-.57 1.03-.12.4-.2.83-.2 1.3 0 .47.06.9.2 1.3.15.4.35.73.6 1.02.27.3.58.5.94.67.35.15.74.23 1.17.23.55 0 1-.1 1.37-.34.37-.24.66-.53.88-.88.22-.35.37-.74.46-1.15.08-.42.1-.82.1-1.2h-4.65c0-.26.03-.52.1-.77.07-.24.2-.46.35-.64.16-.2.36-.34.6-.45.26-.1.55-.16.88-.16.44 0 .8.1 1.07.3.27.2.46.5.54.9h1c-.13-.7-.42-1.2-.9-1.56"/></g><g><path fill="#176fc1" d="M365.36 346.3v-1.32h.02c.25.5.55.87.9 1.12.37.23.83.35 1.38.33v-1.08c-.4 0-.76-.05-1.04-.17-.3-.1-.52-.27-.7-.5-.18-.2-.3-.47-.38-.78-.08-.3-.12-.66-.12-1.06v-2.76h-1.02v6.2z"/></g><g><path fill="#176fc1" d="M318.26 331v.9h1.04v.9c0 .5.15.9.44 1.16.3.26.72.4 1.28.4.1 0 .2-.02.33-.04.12 0 .23-.04.33-.07v-.9c-.1.04-.2.07-.3.08-.1 0-.2.02-.28.02-.25 0-.44-.05-.57-.15-.14-.1-.2-.28-.2-.55v-.86h1.2v-.9h-1.2v-5.32h-1.03v5.3z"/></g><g><path fill="#176fc1" d="M323.33 327.78c.1-.3.23-.54.4-.73.2-.2.4-.35.63-.46.24-.1.5-.16.75-.16.27 0 .52.05.76.15.24.1.44.25.62.45.17.2.3.43.4.73.1.3.16.62.16 1 0 .37-.05.7-.15 1-.1.3-.25.54-.42.74-.18.2-.38.35-.62.45-.24.1-.5.16-.75.16s-.5-.05-.74-.16c-.24-.1-.44-.25-.62-.45s-.3-.45-.4-.74c-.1-.3-.16-.63-.16-1 0-.38.05-.7.15-1m-1.04 2.28c.12.4.3.74.56 1.03.26.28.58.5.95.68.4.17.82.25 1.3.25.5 0 .94-.08 1.3-.25.38-.17.7-.4.95-.7.26-.28.45-.63.58-1.02.13-.4.2-.83.2-1.28 0-.46-.07-.88-.2-1.27-.13-.38-.32-.73-.58-1.02-.25-.3-.57-.52-.94-.68-.36-.17-.8-.25-1.3-.25-.48 0-.9.08-1.3.25-.36.16-.68.4-.94.68-.25.3-.44.64-.57 1.03-.14.4-.2.82-.2 1.28 0 .45.06.88.2 1.28"/></g><g><path fill="#176fc1" d="M330.25 331.9v-1.32h.02c.25.5.55.87.9 1.12.37.23.83.35 1.38.33v-1.08c-.4 0-.76-.06-1.04-.17-.28-.1-.52-.27-.7-.5-.17-.2-.3-.47-.37-.78-.08-.3-.12-.66-.12-1.06v-2.76h-1.02v6.2z"/></g><g><path fill="#176fc1" d="M339.14 325.68v6.1h-2.2v.8c.28 0 .56.04.83.08.27.04.52.13.74.25.23.13.4.3.57.5.15.2.25.47.3.8h.8v-8.52z"/></g><g><path fill="#176fc1" d="M343.22 332.38c.1.37.28.68.52.95.24.27.53.48.88.63.35.15.75.23 1.2.23.37 0 .7-.06 1.04-.17.32-.1.6-.27.84-.47.25-.2.44-.46.58-.76.14-.3.2-.66.2-1.06 0-.37-.05-.7-.17-1-.1-.28-.26-.54-.45-.77-.2-.23-.4-.43-.66-.62-.26-.18-.5-.36-.78-.52-.26-.16-.53-.32-.8-.48-.26-.15-.5-.32-.72-.5-.22-.17-.4-.36-.56-.57-.16-.2-.26-.43-.3-.7h4.36v-.9h-5.55c.04.5.13.94.26 1.3.16.35.33.66.55.92.2.27.46.5.73.7.27.2.56.4.85.56.36.23.68.43.95.62.27.2.5.38.68.57.18.2.32.4.4.62.1.23.15.5.15.78 0 .24-.04.45-.13.63-.08.2-.2.35-.35.5-.15.13-.32.23-.52.3-.2.07-.4.1-.64.1-.3 0-.55-.05-.76-.18-.2-.12-.4-.28-.52-.48-.14-.2-.24-.43-.3-.68-.06-.25-.08-.5-.07-.76h-1c-.04.43 0 .83.12 1.2"/></g><g><path fill="#176fc1" d="M350.84 328.8c.02-.4.1-.77.2-1.12.1-.35.28-.64.52-.88s.57-.36 1-.36c.44 0 .77.12 1 .36.25.24.43.53.54.88.1.35.17.72.2 1.12 0 .4.02.75.02 1.07 0 .2 0 .44 0 .7 0 .24-.03.5-.07.75-.04.25-.1.5-.15.73-.07.24-.17.45-.3.63-.14.18-.3.33-.5.44-.2.1-.45.17-.73.17-.3 0-.54-.07-.74-.18-.2-.1-.36-.26-.5-.44-.13-.18-.23-.4-.3-.63-.06-.24-.1-.48-.15-.73-.04-.26-.06-.5-.06-.76 0-.25 0-.48 0-.7 0-.3 0-.67.02-1.06m-1.08 2.03c0 .34.05.66.12.98.06.33.15.64.27.93.12.28.3.54.5.75.2.22.46.4.78.52.32.13.7.2 1.14.2.44 0 .8-.07 1.13-.2.32-.13.58-.3.8-.52.2-.2.36-.47.48-.75.12-.3.2-.6.27-.92.07-.3.1-.63.12-.97.02-.34.03-.66.03-.97 0-.3 0-.64-.03-.97 0-.35-.05-.68-.12-1-.06-.32-.15-.62-.27-.9-.12-.3-.3-.54-.5-.75-.2-.22-.46-.4-.78-.5-.3-.14-.7-.2-1.13-.2-.45 0-.82.06-1.14.2-.32.1-.58.28-.78.5-.2.2-.38.46-.5.75-.12.28-.2.58-.27.9-.07.32-.1.65-.12 1-.02.32-.03.65-.03.96 0 .3 0 .63.03.97"/></g><g><path fill="#176fc1" d="M361.4 329.68c-.08.28-.2.53-.36.74-.15.22-.35.4-.6.52-.24.13-.53.2-.85.2-.36 0-.65-.08-.9-.2-.23-.15-.43-.33-.58-.55-.15-.23-.26-.48-.33-.76-.08-.28-.1-.56-.1-.85 0-.3.03-.6.1-.9.07-.28.18-.53.34-.74.15-.22.36-.4.6-.52.25-.14.55-.2.9-.2.36 0 .65.07.9.2.22.14.4.32.56.54.14.23.25.48.3.77.07.3.1.6.1.9 0 .28-.03.56-.1.83m-3.67 2.2v-.83h.02c.17.34.43.6.8.75.35.15.75.23 1.18.23.48 0 .9-.1 1.25-.26.36-.18.65-.42.9-.72.23-.3.4-.64.53-1.04.13-.38.2-.8.2-1.23 0-.44-.07-.86-.2-1.25-.1-.4-.28-.73-.52-1.03-.23-.3-.53-.53-.88-.7-.36-.17-.78-.25-1.25-.25-.15 0-.32.02-.5.05-.2.03-.38.08-.56.15-.2.08-.37.17-.54.3-.16.12-.3.28-.4.46h-.03v-3.18h-1.03v8.57z"/></g><g><path fill="#176fc1" d="M363.3 331.9h1.3l1.5-2.2 1.54 2.2h1.22l-2.14-2.87 2.4-3.35h-1.3l-1.73 2.57-1.74-2.57h-1.24l2.33 3.27z"/></g><g><path fill="#176fc1" d="M379.2 329.13v-.82h-2.62v-2.62h-.82v2.63h-2.62v.83h2.62v2.62h.82v-2.62z"/></g><g><path fill="#fff" fill-rule="evenodd" d="M152.6 168.55c-9 0-16.28-7.3-16.28-16.3 0-7.2 4.67-13.3 11.14-15.45.82-.15 1.1.35 1.1.78 0 .4 0 1.42 0 2.77-4.54-.98-5.5 2.2-5.5 2.2-.74 1.87-1.8 2.37-1.8 2.37-1.48 1 .1 1 .1 1 1.64-.12 2.5-1.7 2.5-1.7 1.45-2.48 3.8-1.76 4.74-1.34.15 1.05.57 1.77 1.04 2.18-3.62.4-7.42 1.8-7.42 8.05 0 1.8.63 3.24 1.67 4.38-.17.4-.73 2.07.15 4.3 0 0 1.37.45 4.48-1.66 1.3.36 2.7.54 4.08.55 1.4 0 2.8-.2 4.1-.55 3.1 2.1 4.46 1.67 4.46 1.67.9-2.25.33-3.9.17-4.32 1.04-1.14 1.67-2.6 1.67-4.37 0-6.25-3.8-7.63-7.44-8.03.6-.5 1.1-1.5 1.1-3.02 0-2.17 0-3.93 0-4.47 0-.43.28-.94 1.1-.78 6.48 2.16 11.14 8.26 11.14 15.46 0 9-7.3 16.3-16.3 16.3"/></g><g><path fill="#fff" fill-rule="evenodd" d="M350.6 217.55c-33.34 0-60.38-27.03-60.38-60.38 0-26.68 17.3-49.32 41.3-57.3 3.02-.56 4.12 1.3 4.12 2.9 0 1.44-.05 6.2-.08 11.24-16.8-3.64-20.34 7.14-20.34 7.14-2.75 6.98-6.7 8.83-6.7 8.83-5.5 3.75.4 3.68.4 3.68 6.07-.43 9.26-6.23 9.26-6.23 5.4-9.23 14.13-6.56 17.57-5.02.55 3.9 2.1 6.57 3.84 8.08-13.42 1.52-27.52 6.7-27.52 29.84 0 6.6 2.35 11.98 6.22 16.2-.63 1.53-2.7 7.67.58 16 0 0 5.07 1.6 16.6-6.2 4.83 1.34 10 2 15.13 2.03 5.14-.02 10.3-.7 15.14-2.03 11.52 7.8 16.6 6.2 16.6 6.2 3.27-8.33 1.2-14.47.58-16 3.87-4.22 6.2-9.6 6.2-16.2 0-23.2-14.1-28.3-27.56-29.8 2.17-1.87 4.1-5.54 4.1-11.18 0-8.08-.07-14.58-.07-16.57 0-1.6 1.07-3.5 4.13-2.9 24 8 41.27 30.62 41.27 57.3 0 33.35-27.04 60.38-60.4 60.38"/></g><g><path fill="#fff" d="M313.1 130.85c-.14-.3-.6-.4-1.04-.18-.44.2-.7.6-.54.9.13.3.6.4 1.04.2.43-.2.68-.62.53-.92"/></g><g><path fill="#fff" d="M315.54 128.12c-.3-.26-.85-.14-1.23.28-.4.42-.46 1-.17 1.26.3.26.84.14 1.24-.28.4-.43.47-1 .17-1.26"/></g><g><path fill="#fff" d="M317.92 124.65c-.37-.26-.98-.02-1.35.52-.37.53-.37 1.18 0 1.44.38.26.98.03 1.36-.5.37-.55.37-1.2 0-1.45"/></g><g><path fill="#fff" d="M321.18 121.3c-.33-.38-1.03-.28-1.55.22-.53.48-.67 1.17-.34 1.54.32.37 1.03.26 1.55-.23.53-.5.68-1.18.33-1.54"/></g><g><path fill="#fff" d="M325.68 119.33c-.14-.47-.82-.68-1.5-.48-.7.2-1.14.76-1 1.24.14.46.83.7 1.5.47.7-.2 1.14-.75 1-1.24"/></g><g><path fill="#fff" d="M330.62 118.97c.02-.5-.56-.9-1.28-.92-.72 0-1.3.4-1.3.88 0 .5.56.9 1.28.92.72.02 1.3-.38 1.3-.88"/></g><g><path fill="#fff" d="M335.22 119.75c.1-.48-.4-.98-1.12-1.1-.7-.14-1.35.16-1.44.64-.1.5.42 1 1.12 1.12.7.12 1.35-.17 1.44-.67"/></g><g><path fill="none" stroke="#3a7fc3" stroke-miterlimit="10" d="M224.9 223.5v-.5" stroke-linecap="round"/></g><g><path fill="none" stroke="#3a7fc3" stroke-miterlimit="10" d="M224.9 221V87" stroke-linecap="round" stroke-dasharray="1, 2"/></g><g><path fill="none" stroke="#3a7fc3" stroke-miterlimit="10" d="M224.9 86v-.5" stroke-linecap="round"/></g><g><path fill="#176fc1" d="M133.28 71.48c-.38.28-.87.4-1.46.4-.24 0-.48 0-.7-.06-.24-.05-.45-.13-.63-.24-.2-.1-.33-.26-.44-.45-.1-.2-.16-.42-.16-.7 0-.26.08-.48.23-.64.16-.18.37-.3.63-.4.26-.12.55-.2.88-.27.33-.07.66-.14 1-.22.34-.07.67-.17 1-.28.33-.1.62-.25.88-.43.26-.2.47-.43.63-.7.15-.3.23-.64.23-1.07 0-.45-.1-.84-.3-1.17-.2-.32-.47-.58-.8-.8-.3-.2-.67-.34-1.06-.43-.4-.1-.8-.14-1.2-.14-.47 0-.92.05-1.35.17-.43.12-.8.3-1.13.55-.32.24-.58.55-.76.93-.2.38-.3.83-.3 1.35h1.1c0-.36.06-.67.2-.93s.33-.47.56-.64c.22-.17.5-.3.8-.37.3-.08.6-.12.93-.12.26 0 .5.02.77.07.26.06.5.14.7.26.2.1.38.27.5.47.14.2.2.46.2.77 0 .3-.08.53-.23.72-.15.18-.36.33-.62.45-.26.1-.55.2-.88.28-.33.07-.66.15-1 .22-.34.08-.67.17-1 .27-.33.1-.62.23-.88.4-.26.16-.47.37-.63.63-.16.26-.24.58-.24.98 0 .43.1.8.26 1.12.18.3.4.57.7.78.3.2.63.35 1 .45.37.1.75.15 1.15.15.44 0 .84-.05 1.22-.15.37-.1.7-.27.98-.5.28-.22.5-.5.67-.84.17-.34.26-.75.27-1.22h-1.08c-.06.62-.28 1.06-.66 1.34"/></g><g><path fill="#176fc1" d="M137.55 70.3v-.93h.03c.46.7 1.13 1.06 2 1.06.4 0 .73-.08 1.05-.24.3-.17.53-.44.66-.83.2.34.47.6.8.78.35.2.72.28 1.13.28.3 0 .6-.03.85-.1s.46-.18.64-.32c.18-.13.32-.32.42-.55.1-.23.15-.5.15-.82v-4.55h-1.03v4.07c0 .2 0 .37-.04.54-.04.16-.1.3-.18.43-.1.12-.2.22-.37.3-.16.06-.36.1-.6.1-.5 0-.9-.14-1.2-.43-.28-.3-.43-.67-.43-1.15v-3.87h-1.02v4.07c0 .2 0 .38-.05.55-.04.17-.1.32-.2.44-.07.12-.2.22-.34.3-.15.06-.34.1-.57.1-.3 0-.55-.07-.76-.2-.2-.1-.38-.25-.5-.42-.14-.17-.24-.34-.3-.52s-.1-.33-.1-.45v-3.87h-1v6.2z"/></g><g><path fill="#176fc1" d="M150.17 67.08c-.2-.05-.43-.08-.66-.1-.22-.04-.45-.07-.68-.1-.23-.04-.44-.1-.62-.18-.2-.08-.34-.2-.45-.34-.12-.15-.18-.35-.18-.6 0-.18.04-.32.1-.44.07-.1.16-.2.27-.28.1-.07.24-.12.38-.15.15-.05.3-.06.45-.06.34 0 .63.04.87.14s.43.2.6.34c.14.14.25.3.32.46.07.16.1.32.1.46v1.05c-.12-.1-.3-.18-.5-.22m1.43-3.13c-.27 0-.48.07-.64.22-.15.15-.23.4-.23.73-.28-.34-.6-.58-.98-.73-.37-.15-.77-.22-1.2-.22-.28 0-.55.03-.8.1-.24.05-.46.15-.65.3-.2.13-.34.3-.44.53-.1.22-.17.5-.17.8 0 .35.05.64.17.86.12.23.28.4.48.55.2.13.42.23.67.3.25.08.5.14.77.2.27.04.54.08.8.1.24.04.47.08.66.13.2.05.34.13.45.23.13.1.18.25.18.44 0 .22-.04.4-.12.54-.1.13-.2.24-.33.3-.13.08-.28.13-.44.15-.18.02-.34.03-.5.03-.43 0-.8-.08-1.08-.25-.3-.16-.44-.47-.47-.93h-1.02c.02.4.1.7.24.98.15.26.34.47.58.64.24.16.52.28.83.35.3.07.64.1.98.1.28 0 .56 0 .84-.05.27-.04.52-.12.75-.25.22-.12.4-.3.54-.52.12-.22.2-.5.2-.87v-3.2c0-.24 0-.4.03-.52.03-.1.12-.16.28-.16.1 0 .2.02.33.06v-.8c-.18-.1-.42-.15-.74-.15"/></g><path fill="#176fc1" d="M154.35 64.08h-1.02v8.57h1.02z"/><path fill="#176fc1" d="M157.02 64.08H156v8.57h1.02z"/><g><path fill="#176fc1" d="M101.85 55v.9h1.05v.9c0 .5.14.9.44 1.16.3.26.7.4 1.27.4.1 0 .22-.02.34-.04.13 0 .24-.04.33-.07v-.9c-.08.04-.18.07-.28.08-.12 0-.2.02-.3.02-.25 0-.44-.05-.58-.15-.13-.1-.2-.28-.2-.55v-.86h1.2V55h-1.2v-5.32h-1.02v5.3z"/></g><g><path fill="#176fc1" d="M106.92 51.78c.1-.3.24-.54.42-.74.17-.2.38-.34.62-.45.23-.1.48-.16.75-.16s.52.05.76.15c.23.1.44.25.6.44.2.2.33.44.43.74.1.3.14.62.14 1 0 .37-.05.7-.15 1-.1.3-.25.54-.43.74-.17.2-.38.35-.6.45-.25.1-.5.16-.76.16s-.5-.05-.74-.16c-.24-.1-.45-.25-.62-.45-.18-.2-.32-.45-.42-.74-.1-.3-.15-.63-.15-1 0-.38.05-.7.15-1m-1.03 2.28c.1.4.3.74.56 1.03.26.28.57.5.95.68.4.17.82.25 1.3.25.5 0 .94-.08 1.3-.25.38-.17.7-.4.95-.7.26-.28.45-.63.58-1.02.12-.4.2-.83.2-1.28 0-.46-.08-.88-.2-1.27-.13-.4-.32-.73-.58-1.02-.26-.3-.57-.52-.94-.68-.36-.17-.8-.25-1.3-.25-.48 0-.9.08-1.3.25-.37.16-.68.4-.94.68-.25.3-.45.63-.57 1.03-.14.4-.2.82-.2 1.28 0 .45.06.88.2 1.28"/></g><g><path fill="#176fc1" d="M113.84 55.9v-1.32h.03c.24.5.55.87.9 1.1.37.25.82.36 1.38.35v-1.08c-.4 0-.76-.06-1.05-.17-.3-.1-.52-.27-.7-.5-.17-.2-.3-.47-.38-.78-.08-.3-.12-.66-.12-1.06v-2.76h-1.02v6.2z"/></g><g><path fill="#176fc1" d="M122.73 49.68v6.1h-2.2v.8c.28 0 .56.04.84.08.27.04.5.13.73.25.22.13.4.3.56.5.15.2.26.47.3.8h.8v-8.52z"/></g><g><path fill="#176fc1" d="M128.83 54.1c-.22-.1-.4-.23-.55-.4-.15-.18-.27-.38-.34-.62-.08-.23-.12-.48-.12-.75 0-.26.04-.5.12-.74.08-.24.2-.44.34-.6.15-.18.34-.3.56-.4.22-.1.47-.16.75-.16.27 0 .5.05.72.15.22.1.4.23.54.4.14.18.25.38.33.6.06.24.1.47.1.72 0 .27-.03.52-.1.75-.07.24-.17.44-.32.6-.14.2-.32.32-.54.43-.2.1-.47.15-.75.15-.3 0-.55-.05-.77-.15m1.85 2.84c-.25.23-.58.35-1 .35-.42 0-.77-.12-1.03-.33-.26-.2-.47-.48-.62-.8-.15-.33-.25-.68-.3-1.05-.06-.38-.1-.73-.1-1.06l.02-.02c.24.4.54.67.9.85.35.17.76.25 1.23.25.4 0 .77-.07 1.1-.2.32-.15.6-.34.8-.6.23-.24.4-.53.52-.86.12-.35.18-.7.18-1.1 0-.32-.05-.64-.14-.98-.1-.33-.26-.64-.48-.92-.22-.27-.5-.5-.87-.68-.38-.18-.83-.27-1.36-.27-.63 0-1.14.13-1.53.38-.37.26-.67.6-.87 1-.2.4-.35.83-.42 1.3-.06.5-.1.95-.1 1.4 0 .58.06 1.15.16 1.7.1.54.27 1.03.5 1.46.25.4.57.75.97 1 .4.26.9.4 1.5.4.72 0 1.28-.2 1.7-.57.4-.37.65-.9.7-1.6h-1c-.06.37-.2.68-.45.9"/></g><g><path fill="#176fc1" d="M138.32 53.68c-.08.28-.2.52-.35.74-.16.22-.36.4-.6.52-.25.13-.53.2-.86.2-.33 0-.63-.08-.87-.2-.24-.15-.43-.33-.58-.55-.16-.23-.27-.48-.33-.76-.07-.28-.1-.56-.1-.85 0-.3.03-.6.1-.9.07-.28.2-.53.34-.74.16-.22.36-.4.6-.52.26-.14.56-.2.9-.2.36 0 .66.07.9.2.23.14.42.32.56.54.15.23.25.48.3.77.08.3.1.58.1.9 0 .27-.03.56-.1.83m-3.67 2.2v-.84h.02c.17.35.43.6.8.75.36.15.75.23 1.18.23.48 0 .9-.1 1.26-.26.36-.18.66-.42.9-.72.23-.3.4-.64.53-1.04.12-.38.18-.8.18-1.23 0-.44-.05-.86-.17-1.25-.1-.4-.3-.74-.52-1.03-.23-.3-.53-.53-.88-.7-.36-.17-.77-.25-1.24-.25-.16 0-.33.02-.5.05-.2.03-.4.08-.57.15-.17.08-.35.17-.5.3-.18.12-.3.28-.43.46h-.02v-3.18h-1.02v8.57z"/></g><g><path fill="#176fc1" d="M140.22 55.9h1.3l1.5-2.2 1.54 2.2h1.23l-2.15-2.87 2.4-3.35h-1.3L143 52.25l-1.7-2.57h-1.25l2.33 3.27z"/></g><path fill="#176fc1" d="M150.22 52.54h-3.46v.96h3.47z"/><g><path fill="#176fc1" d="M154.08 49.68v6.1h-2.2v.8c.28 0 .56.04.83.08.28.04.53.13.75.25.22.13.4.3.56.5.16.2.26.47.32.8h.78v-8.52z"/></g><g><path fill="#176fc1" d="M158.16 56.38c.1.37.28.68.52.95.24.27.53.48.88.63.35.15.75.23 1.2.23.37 0 .72-.06 1.04-.17.32-.1.6-.27.85-.47.24-.2.43-.46.57-.76.14-.3.2-.66.2-1.06 0-.38-.05-.7-.17-1-.12-.28-.27-.54-.46-.77-.2-.23-.42-.43-.67-.62-.25-.18-.5-.36-.77-.52-.26-.16-.53-.32-.8-.48-.25-.16-.5-.32-.72-.5-.22-.17-.4-.36-.56-.57-.16-.2-.26-.43-.3-.7h4.36v-.9h-5.55c.03.5.12.93.26 1.3.14.35.3.66.53.92.2.27.45.5.72.7.27.2.56.38.85.56.36.23.68.43.95.62.27.2.5.38.68.57.18.2.32.4.4.62.1.23.15.5.15.78 0 .23-.05.44-.14.63-.07.2-.2.35-.34.5-.15.13-.32.23-.52.3-.2.07-.4.1-.64.1-.3 0-.55-.05-.76-.18-.2-.12-.4-.28-.52-.48-.14-.2-.24-.43-.3-.68-.06-.25-.08-.5-.07-.76h-1.02c-.03.43.02.83.13 1.2"/></g><g><path fill="#176fc1" d="M165.78 52.8c.02-.4.1-.77.2-1.12.1-.35.28-.64.52-.88s.57-.36 1-.36c.44 0 .77.12 1 .36.25.24.43.53.54.88.1.35.17.72.2 1.1 0 .4.02.77.02 1.1 0 .2 0 .43 0 .68 0 .25-.03.5-.07.75-.04.27-.1.5-.16.75-.07.24-.17.45-.3.63-.14.18-.3.33-.5.44-.2.1-.45.17-.73.17-.28 0-.53-.07-.73-.18-.2-.1-.36-.26-.5-.44-.13-.18-.23-.4-.3-.63-.06-.24-.1-.48-.15-.74-.04-.24-.06-.5-.06-.74 0-.25 0-.48 0-.7 0-.3 0-.67.02-1.07m-1.08 2.03c0 .34.05.66.12.98.06.33.15.64.27.93.1.28.28.54.5.75.2.22.46.4.77.52.32.12.7.2 1.14.2.45 0 .82-.08 1.14-.2.32-.13.58-.3.8-.52.2-.2.36-.47.48-.75.12-.3.2-.6.27-.92.06-.3.1-.63.1-.97.03-.34.04-.66.04-.97 0-.32 0-.64-.03-.97 0-.35-.04-.68-.1-1-.07-.32-.16-.62-.28-.9-.12-.3-.3-.54-.5-.75-.2-.22-.46-.4-.77-.5-.32-.14-.7-.2-1.14-.2-.43 0-.8.06-1.13.2-.3.1-.58.28-.78.5-.22.2-.4.46-.5.75-.13.28-.22.58-.28.9-.07.32-.1.65-.12 1-.02.32-.03.64-.03.96 0 .3 0 .63.03.97"/></g><g><path fill="#176fc1" d="M176.33 53.68c-.07.28-.2.52-.35.74-.15.22-.35.4-.6.52-.24.13-.53.2-.85.2-.35 0-.64-.08-.88-.2-.24-.15-.44-.33-.6-.55-.14-.23-.25-.48-.32-.76s-.1-.56-.1-.85c0-.3.04-.6.1-.9.08-.28.2-.53.35-.74.16-.22.36-.4.6-.52.25-.14.55-.2.9-.2.36 0 .65.07.9.2.22.14.4.32.56.54.14.23.25.48.3.77.07.3.1.58.1.9 0 .27-.03.56-.1.83m-3.67 2.2v-.84h.02c.16.35.42.6.78.75.36.15.76.23 1.2.23.47 0 .9-.1 1.24-.26.36-.18.66-.42.9-.72.23-.3.4-.64.53-1.04.12-.38.18-.8.18-1.23 0-.44-.06-.86-.18-1.25-.1-.4-.3-.74-.53-1.03-.23-.3-.53-.53-.88-.7-.36-.17-.78-.25-1.25-.25-.16 0-.33.02-.52.05-.18.03-.37.08-.55.15-.2.08-.36.17-.53.3-.16.12-.3.28-.4.46h-.03v-3.18h-1.02v8.57z"/></g><g><path fill="#176fc1" d="M178.23 55.9h1.3l1.5-2.2 1.55 2.2h1.22l-2.14-2.87 2.4-3.35h-1.3l-1.73 2.57-1.73-2.57h-1.24l2.33 3.27z"/></g><g><path fill="#176fc1" d="M335.63 72.65v-7.6h4.54v-.97h-5.68v8.57z"/></g><g><path fill="#176fc1" d="M344.33 67.08c-.2-.05-.42-.08-.65-.1-.23-.04-.46-.07-.7-.1-.22-.04-.43-.1-.62-.18-.18-.08-.33-.2-.44-.34-.12-.15-.18-.35-.18-.6 0-.18.04-.32.1-.44.07-.1.16-.2.27-.28.1-.07.24-.12.4-.15.14-.05.3-.06.44-.06.34 0 .63.05.87.14.24.1.44.2.6.34.14.15.26.3.33.46.07.16.1.32.1.46v1.05c-.12-.1-.3-.18-.5-.22m1.43-3.13c-.26 0-.47.07-.63.22-.15.15-.23.4-.23.73-.28-.34-.6-.58-.98-.73-.37-.15-.77-.22-1.2-.22-.3 0-.55.03-.8.1-.25.05-.47.15-.65.3-.2.13-.34.3-.45.53-.1.22-.16.5-.16.8 0 .35.06.64.18.86.12.23.28.4.48.55.2.13.4.23.67.3.24.08.5.14.76.2.28.04.55.08.8.1.25.04.47.08.67.13.2.06.34.13.45.23.1.1.17.25.17.44 0 .22-.04.4-.13.54-.08.13-.2.24-.32.3-.13.08-.28.13-.45.15-.16.02-.32.03-.48.03-.43 0-.8-.08-1.08-.24-.3-.18-.46-.5-.48-.95h-1.02c.02.4.1.7.24.98.14.26.34.48.58.64.24.16.5.28.82.35.32.07.65.1 1 .1.27 0 .55 0 .82-.05.28-.04.53-.12.75-.24.24-.13.42-.3.55-.53.14-.22.2-.5.2-.87v-3.2c0-.23.02-.4.05-.52.03-.1.12-.16.28-.16.1 0 .2.02.3.06v-.8c-.16-.1-.4-.15-.72-.15"/></g><g><path fill="#176fc1" d="M348.36 70.3v-1.32h.03c.24.5.54.87.9 1.12.36.23.82.35 1.37.33v-1.08c-.4 0-.76-.05-1.05-.17-.28-.1-.52-.27-.7-.5-.17-.2-.3-.47-.38-.78-.08-.3-.1-.66-.1-1.06v-2.76h-1.04v6.2z"/></g><g><path fill="#176fc1" d="M354.45 65.12c.24.14.43.32.57.55.15.23.25.5.32.78s.1.57.1.86c0 .28-.03.55-.1.82-.06.26-.16.5-.3.7-.14.22-.32.4-.54.52-.23.13-.5.2-.82.2-.33 0-.6-.07-.84-.2-.23-.12-.42-.28-.57-.5-.15-.2-.25-.44-.32-.7-.07-.3-.1-.57-.1-.87 0-.28.02-.55.08-.84.05-.28.15-.53.3-.76.12-.23.3-.4.53-.55.22-.14.5-.2.84-.2.33 0 .62.06.85.2m1.3-2.8c-.46-.5-1.2-.75-2.18-.75-.3 0-.58.04-.88.1-.3.06-.58.17-.83.3-.24.16-.44.34-.6.58-.16.23-.25.5-.26.85h1.02c0-.18.07-.34.18-.47.1-.13.24-.23.4-.3.15-.1.32-.15.5-.2.2-.02.36-.04.53-.04.34 0 .62.05.85.16.24.12.43.28.58.5.15.2.26.43.33.72.06.3.1.6.1.95v.4h-.03c-.18-.38-.44-.66-.8-.84-.36-.2-.73-.28-1.13-.28-.47 0-.87.1-1.2.25-.36.17-.65.4-.88.68-.23.3-.4.62-.52 1s-.17.78-.17 1.2c0 .37.04.75.14 1.14.1.38.27.73.5 1.05.2.3.5.57.88.78.36.2.82.3 1.35.3.4 0 .75-.1 1.08-.26.34-.17.6-.43.78-.77v.9h.97v-5.7c0-1-.23-1.77-.7-2.27"/></g><g><path fill="#176fc1" d="M362.13 68.46c-.1.22-.2.4-.37.56-.15.16-.34.28-.55.37-.2.08-.43.13-.7.13-.26 0-.5-.05-.7-.14-.22-.1-.4-.23-.55-.4-.15-.15-.27-.33-.36-.54-.1-.22-.15-.44-.17-.68h3.57c-.02.24-.07.47-.17.68m.25-3.98c-.46-.35-1.05-.53-1.75-.53-.5 0-.93.08-1.3.24-.36.15-.66.37-.9.66-.26.3-.44.63-.57 1.03-.12.4-.2.83-.2 1.3 0 .47.06.9.2 1.3.15.4.35.73.6 1.02.27.3.58.5.94.67.35.15.74.23 1.17.23.55 0 1-.1 1.37-.34.37-.24.66-.53.88-.88.22-.35.37-.74.46-1.15.08-.42.1-.82.1-1.2h-4.65c0-.26.03-.52.1-.77.07-.24.2-.46.35-.64.16-.2.36-.34.6-.45.26-.1.55-.16.88-.16.44 0 .8.1 1.07.3.27.2.46.5.54.9h1c-.13-.7-.42-1.2-.9-1.56"/></g><g><path fill="#176fc1" d="M365.36 70.3v-1.32h.02c.25.5.55.87.9 1.12.37.23.83.35 1.38.33v-1.08c-.4 0-.76-.05-1.04-.17-.3-.1-.52-.27-.7-.5-.18-.2-.3-.47-.38-.78-.08-.3-.12-.66-.12-1.06v-2.76h-1.02v6.2z"/></g><g><path fill="#176fc1" d="M318.26 55v.9h1.04v.9c0 .5.15.9.44 1.16.3.26.72.4 1.28.4.1 0 .2-.02.33-.04.12 0 .23-.04.33-.07v-.9c-.1.04-.2.07-.3.08-.1 0-.2.02-.28.02-.25 0-.44-.05-.57-.15-.14-.1-.2-.28-.2-.55v-.86h1.2V55h-1.2v-5.32h-1.03v5.3z"/></g><g><path fill="#176fc1" d="M323.33 51.78c.1-.3.23-.54.4-.73.2-.2.4-.35.63-.46.24-.1.5-.16.75-.16.27 0 .52.05.76.15.24.1.44.25.62.45.17.2.3.43.4.73.1.3.16.62.16 1 0 .37-.05.7-.15 1-.1.3-.25.54-.42.74-.18.2-.38.35-.62.45-.24.1-.5.16-.75.16s-.5-.05-.74-.16c-.24-.1-.44-.25-.62-.45s-.3-.45-.4-.74c-.1-.3-.16-.63-.16-1 0-.38.05-.7.15-1m-1.04 2.28c.12.4.3.74.56 1.03.26.28.58.5.95.68.4.17.82.25 1.3.25.5 0 .94-.08 1.3-.25.38-.17.7-.4.95-.7.26-.28.45-.63.58-1.02.13-.4.2-.83.2-1.28 0-.46-.07-.88-.2-1.27-.13-.38-.32-.73-.58-1.02-.25-.3-.57-.52-.94-.68-.36-.17-.8-.25-1.3-.25-.48 0-.9.08-1.3.25-.36.16-.68.4-.94.68-.25.3-.44.64-.57 1.03-.14.4-.2.82-.2 1.28 0 .45.06.88.2 1.28"/></g><g><path fill="#176fc1" d="M330.25 55.9v-1.32h.02c.25.5.55.87.9 1.12.37.23.83.35 1.38.33v-1.08c-.4 0-.76-.06-1.04-.17-.28-.1-.52-.27-.7-.5-.17-.2-.3-.47-.37-.78-.08-.3-.12-.66-.12-1.06v-2.76h-1.02v6.2z"/></g><g><path fill="#176fc1" d="M339.14 49.68v6.1h-2.2v.8c.28 0 .56.04.83.08.27.04.52.13.74.25.23.13.4.3.57.5.15.2.25.47.3.8h.8v-8.52z"/></g><g><path fill="#176fc1" d="M343.22 56.38c.1.37.28.68.52.95.24.27.53.48.88.63.35.15.75.23 1.2.23.37 0 .7-.06 1.04-.17.32-.1.6-.27.84-.47.25-.2.44-.46.58-.76.14-.3.2-.66.2-1.06 0-.37-.05-.7-.17-1-.1-.28-.26-.54-.45-.77-.2-.23-.4-.43-.66-.62-.26-.18-.5-.36-.78-.52-.26-.16-.53-.32-.8-.48-.26-.15-.5-.32-.72-.5-.22-.17-.4-.36-.56-.57-.16-.2-.26-.43-.3-.7h4.36v-.9h-5.55c.04.5.13.94.26 1.3.16.35.33.66.55.92.2.27.46.5.73.7.27.2.56.4.85.56.36.23.68.43.95.62.27.2.5.38.68.57.18.2.32.4.4.62.1.23.15.5.15.78 0 .24-.04.45-.13.63-.08.2-.2.35-.35.5-.15.13-.32.23-.52.3-.2.07-.4.1-.64.1-.3 0-.55-.05-.76-.18-.2-.12-.4-.28-.52-.48-.14-.2-.24-.43-.3-.68-.06-.25-.08-.5-.07-.76h-1c-.04.43 0 .83.12 1.2"/></g><g><path fill="#176fc1" d="M350.84 52.8c.02-.4.1-.77.2-1.12.1-.35.28-.64.52-.88s.57-.36 1-.36c.44 0 .77.12 1 .36.25.24.43.53.54.88.1.35.17.72.2 1.12 0 .4.02.75.02 1.07 0 .2 0 .44 0 .7 0 .24-.03.5-.07.75-.04.25-.1.5-.15.73-.07.24-.17.45-.3.63-.14.18-.3.33-.5.44-.2.1-.45.17-.73.17-.3 0-.54-.07-.74-.18-.2-.1-.36-.26-.5-.44-.13-.18-.23-.4-.3-.63-.06-.24-.1-.48-.15-.73-.04-.26-.06-.5-.06-.76 0-.25 0-.48 0-.7 0-.3 0-.67.02-1.06m-1.08 2.03c0 .34.05.66.12.98.06.33.15.64.27.93.12.28.3.54.5.75.2.22.46.4.78.52.32.13.7.2 1.14.2.44 0 .8-.07 1.13-.2.32-.13.58-.3.8-.52.2-.2.36-.47.48-.75.12-.3.2-.6.27-.92.07-.3.1-.63.12-.97.02-.34.03-.66.03-.97 0-.3 0-.64-.03-.97 0-.35-.05-.68-.12-1-.06-.32-.15-.62-.27-.9-.12-.3-.3-.54-.5-.75-.2-.22-.46-.4-.78-.5-.3-.14-.7-.2-1.13-.2-.45 0-.82.06-1.14.2-.32.1-.58.28-.78.5-.2.2-.38.46-.5.75-.12.28-.2.58-.27.9-.07.32-.1.65-.12 1-.02.32-.03.65-.03.96 0 .3 0 .63.03.97"/></g><g><path fill="#176fc1" d="M361.4 53.68c-.08.28-.2.53-.36.74-.15.22-.35.4-.6.52-.24.13-.53.2-.85.2-.36 0-.65-.08-.9-.2-.23-.15-.43-.33-.58-.55-.15-.23-.26-.48-.33-.76-.08-.28-.1-.56-.1-.85 0-.3.03-.6.1-.9.07-.28.18-.53.34-.74.15-.22.36-.4.6-.52.25-.14.55-.2.9-.2.36 0 .65.07.9.2.22.14.4.32.56.54.14.23.25.48.3.77.07.3.1.6.1.9 0 .28-.03.56-.1.83m-3.67 2.2v-.83h.02c.17.34.43.6.8.75.35.15.75.23 1.18.23.48 0 .9-.1 1.25-.26.36-.18.65-.42.9-.72.23-.3.4-.64.53-1.04.13-.38.2-.8.2-1.23 0-.44-.07-.86-.2-1.25-.1-.4-.28-.73-.52-1.03-.23-.3-.53-.53-.88-.7-.36-.17-.78-.25-1.25-.25-.15 0-.32.02-.5.05-.2.03-.38.08-.56.15-.2.08-.37.17-.54.3-.16.12-.3.28-.4.46h-.03v-3.18h-1.03v8.57z"/></g><g><path fill="#176fc1" d="M363.3 55.9h1.3l1.5-2.2 1.54 2.2h1.22l-2.14-2.87 2.4-3.35h-1.3l-1.73 2.57-1.74-2.57h-1.24l2.33 3.27z"/></g><g><path fill="#176fc1" d="M379.2 53.13v-.82h-2.62V49.7h-.82v2.63h-2.62v.83h2.62v2.62h.82v-2.62z"/></g></g></g></g></g></svg>