<svg xmlns="http://www.w3.org/2000/svg" viewBox="0 0 512 512"><path d="M256 49.47c67.27 0 75.23.26 101.8 1.47 24.56 1.12 37.9 5.22 46.78 8.67a78.05 78.05 0 0 1 28.96 18.86 78.05 78.05 0 0 1 18.85 28.97c3.44 8.87 7.54 22.2 8.66 46.77 1.2 26.57 1.47 34.54 1.47 101.8s-.25 75.24-1.47 101.8c-1.12 24.56-5.22 37.9-8.67 46.78a83.43 83.43 0 0 1-47.82 47.8c-8.88 3.46-22.22 7.57-46.78 8.7-26.56 1.2-34.53 1.45-101.8 1.45s-75.24-.25-101.8-1.46c-24.56-1.13-37.9-5.23-46.78-8.68a78.05 78.05 0 0 1-28.96-18.85 78.05 78.05 0 0 1-18.85-28.97c-3.44-8.88-7.54-22.2-8.66-46.78-1.22-26.56-1.47-34.53-1.47-101.8s.25-75.23 1.47-101.8c1.12-24.56 5.22-37.9 8.67-46.78a78.05 78.05 0 0 1 18.86-28.96 78.05 78.05 0 0 1 28.96-18.85c8.88-3.44 22.22-7.54 46.78-8.66 26.57-1.2 34.53-1.47 101.8-1.47m0-45.4c-68.42 0-77 .3-103.86 1.53C125.32 6.82 107 11.08 91 17.3a123.5 123.5 0 0 0-44.63 29.06A123.5 123.5 0 0 0 17.3 90.98C11.08 107 6.82 125.32 5.6 152.13 4.37 179 4.08 187.58 4.08 256s.3 77 1.52 103.87c1.22 26.8 5.48 45.12 11.7 61.15a123.5 123.5 0 0 0 29.07 44.62A123.5 123.5 0 0 0 91 494.7c16 6.22 34.32 10.48 61.14 11.7 26.87 1.23 35.45 1.52 103.86 1.52s77-.3 103.87-1.52c26.82-1.22 45.13-5.48 61.15-11.7A128.82 128.82 0 0 0 494.7 421c6.23-16.03 10.48-34.34 11.7-61.15 1.23-26.87 1.52-35.45 1.52-103.87s-.3-77-1.5-103.87c-1.24-26.8-5.5-45.12-11.72-61.15a123.5 123.5 0 0 0-29.06-44.62 123.5 123.5 0 0 0-44.62-29.06C405 11.08 386.68 6.82 359.87 5.6 333 4.37 324.42 4.08 256 4.08zM256 126.64A129.37 129.37 0 1 0 385.37 256 129.37 129.37 0 0 0 256 126.63zm0 213.33A83.97 83.97 0 1 1 339.97 256 83.97 83.97 0 0 1 256 339.97z"/><circle cx="390.476" cy="121.524" r="30.23"/></svg>