<svg xmlns="http://www.w3.org/2000/svg" width="139.593mm" height="139.593mm" viewBox="0 0 139.59268 139.59268"><g transform="translate(-35.578 -71.53)"><circle cx="105.374" cy="141.326" r="69.796" fill="#ffc10f" fill-opacity=".941"/></g><g><path d="M36.8 131.3c-.65-.36-1.05-.56-1.77-1 .08-.17.17-.34.6-.5.27-.1.6-.3.7-.46.1-.14.56-.27 1.05-.27.5 0 1.04-.18 1.22-.4.18-.22.6-.4.9-.4.33 0 .8-.24 1.04-.53.3-.34.8-.54 1.37-.54.8 0 .93-.1 1.07-.8.16-.78.2-.8 1.7-.8 1.38-.02 1.62-.1 2.2-.8.5-.6.9-.8 1.56-.8.76 0 1.2-.3 2.65-1.74.96-.96 1.95-1.74 2.2-1.74.57 0 1.63-1.08 1.63-1.66 0-.23.2-.56.4-.75.3-.23.4-.9.4-2.55v-2.23l-2.13-2.14c-1.18-1.2-2.14-2.37-2.14-2.66 0-.28-.18-.58-.4-.66-.22-.1-.4-.45-.4-.8 0-.35-.18-.8-.4-.98-.22-.18-.4-.52-.4-.76 0-.23-.8-1.22-1.75-2.2-1.54-1.54-1.7-1.8-1.34-2.1.9-.74.15-2.28-1.2-2.46-.5-.07-.68-.28-.74-.85-.05-.4-.26-.8-.47-.88-.2-.08-.38-.4-.38-.74 0-.32-.42-1-.94-1.5-.73-.7-.92-1.1-.92-1.9 0-.62-.15-1.03-.4-1.13-.23-.08-.4-.44-.4-.8 0-.36-.2-.72-.4-.8-.27-.1-.4-.52-.4-1.2 0-.6-.18-1.2-.4-1.38-.23-.18-.4-.54-.4-.78 0-.26-.43-.87-.95-1.37-.73-.7-.93-1.12-.93-1.9 0-.63-.15-1.04-.4-1.14-.32-.13-.4-.67-.4-2.55 0-1.87-.1-2.4-.4-2.54-.6-.2-.6-4.1 0-4.34.22-.08.4-.42.4-.76 0-.33.18-.75.4-.94.53-.44.53-2.3 0-2.5-.27-.1-.4-.52-.4-1.2 0-.6-.17-1.2-.4-1.38-.23-.2-.4-.77-.4-1.34 0-.65-.15-1.06-.4-1.16-.27-.1-.4-.52-.4-1.2 0-.6-.18-1.18-.4-1.38-.53-.43-.53-1.77 0-1.96.2-.1.4-.4.4-.7 0-.3-.2-.63-.4-.72-.3-.1-.4-.54-.4-1.48 0-.93-.17-1.54-.55-2-.36-.47-.53-1.1-.53-1.94 0-1.05-.13-1.38-.8-2.02-.74-.7-.8-.92-.8-2.6 0-1.38-.1-1.87-.4-2-.26-.08-.4-.5-.4-1.15 0-.57-.18-1.15-.4-1.34-.23-.2-.4-.56-.4-.83 0-.86-.52-.84-1.34.06-.65.7-.86.8-1.14.53-.27-.27-.24-.4.13-.68.63-.46.68-3.23.07-3.46-.3-.12-.4-.62-.4-2.07v-1.9l2.04-1.98c1.13-1.1 2.27-1.98 2.54-1.98.28 0 .5-.13.5-.27 0-.16-.82-.27-1.9-.27-1.52 0-2 .1-2.26.47-.26.34-.43.4-.65.17-.36-.37 2.45-3.3 3.17-3.3.26 0 .88-.43 1.38-.95.5-.5 1.12-.94 1.4-.94.5 0 .64-.4.2-.65-.52-.33-.25-.9.47-1 .55-.05.76-.24.83-.74.05-.36.26-.76.47-.87.2-.12.37-.5.37-.86 0-.82.52-1.14.93-.57.18.24.58.44.9.44.65 0 .7-.1.26-.77-.26-.4-.2-.6.26-1.06.32-.3.8-.57 1.05-.57.28 0 1.08-.6 1.8-1.34 1.03-1.04 1.5-1.34 2.16-1.34 1.05 0 1.3-.25.72-.7-.43-.3-.43-.36-.02-.82.25-.27.5-.97.54-1.56.1-1.27.83-1.5.97-.3.05.4.26.8.47.88.2.08.38.43.38.77 0 .96.52 1.07.7.14.18-.86.58-1.04 1.12-.5.25.25.5.13 1.2-.53 1.03-1 1.5-1.07 2.14-.3.67.77 2.9.65 3.12-.17.3-1.15 1.24-2 2.22-2 .5 0 1.08-.18 1.27-.4.44-.54.87-.37 1.06.43.2.85 1.66 1.05 2.45.33.52-.46.55-.46.92.04s.38.5.75 0c.36-.5.4-.5.9-.05.62.57 1.23.6 1.67.06.22-.27.82-.4 1.77-.4 1.05 0 1.5-.1 1.6-.4.1-.26.52-.4 1.16-.4.78 0 1.18-.2 1.9-.94 1.24-1.3 2.17-1.2 2.44.27.05.3.35.58.66.62.68.1 1.6 1.06 1.75 1.8.13.68.94.83 1.55.27.4-.35.96-.43 2.86-.36l2.38.07.08 1.1c.06.75-.05 1.2-.33 1.44-.23.2-.42.45-.42.58 0 .4 1 .27 1.35-.17.45-.54 2.63-.54 2.84 0 .1.26.5.4 1.16.4.57 0 1.15.18 1.34.4.42.52 1.17.52 1.6 0 .52-.63 1.44-.46 2.27.4.53.56 1.03.8 1.6.8 1.34 0 1.98 1.13 1.08 1.88-.72.6-.43 1.3 1.24 2.98 1.34 1.38 1.57 1.74 1.32 2.1-.6.8-.63 1.1-.2 1.58.5.54.57 1.1.17 1.1-.6 0-.23.67.92 1.76.98.92 1.2 1.3 1.2 2.06 0 .5.18 1.08.4 1.26.23.2.4.63.4.98s-.17.7-.4.8c-.22.08-.4.44-.4.8 0 .36.18.72.4.8.26.1.4.5.4 1.15 0 .74.2 1.16.8 1.75.9.84 1.02 1.33.4 1.56-.2.1-.4.47-.4.83 0 .37-.17.77-.4.9-.33.18-.26.35.4 1 1 .94 1 1.16 0 2-.62.5-.8.86-.8 1.63 0 .63.15 1.04.4 1.14.28.1.4.53.4 1.36 0 1.12-.05 1.2-.8 1.4l-.83.22.8.8c.76.74.8.94.82 2.75 0 1.5-.1 1.98-.4 2.1-.55.2-.53 2.13.03 2.44.57.32.43 2.6-.16 2.6-.23 0-.45-.3-.5-.67-.05-.37-.26-.76-.47-.88-.2-.12-.37-.5-.37-.88 0-.36-.17-.73-.37-.8-.22-.08-.46-.5-.55-.95-.18-.93-.7-.8-.7.18 0 .72-.55.86-1.05.26-.18-.2-.58-.42-.9-.46-1.1-.16-.68-.88.55-.97.62-.04 1.14-.16 1.14-.27 0-.34-1.08-1.1-1.56-1.1-.62 0-3.27 2.76-3.27 3.42 0 .3-.18.6-.4.68-.22.08-.4.4-.4.73 0 .34-.55 1.12-1.33 1.9-.74.72-1.34 1.53-1.34 1.8 0 .26-.18.63-.4.82-.22.18-.4.54-.4.8s-.18.62-.4.8c-.23.18-.4.56-.4.84 0 .96-.74.83-1.86-.32-.6-.6-1.1-1.33-1.1-1.6 0-.25-.17-.6-.4-.8-.27-.23-.4-.85-.4-2.13 0-1.37-.1-1.85-.4-1.97-.28-.1-.4-.57-.4-1.74 0-1.16-.1-1.62-.4-1.73-.26-.1-.4-.52-.4-1.24 0-.73-.13-1.15-.4-1.25-.2-.1-.4-.42-.4-.74 0-.35-.77-1.33-2.12-2.68-1.17-1.16-2.16-2.36-2.2-2.66-.05-.3-.33-.6-.62-.65-.88-.15-1.2-.58-1.2-1.57 0-.58-.18-1.08-.47-1.3-.44-.35-.44-.4.07-.8.5-.38.5-.42.06-.67-.57-.32-.6-1.4-.06-1.84.3-.25.4-.9.4-2.54 0-1.64-.1-2.3-.4-2.54-.22-.18-.4-.56-.4-.84 0-.64-2.05-2.64-2.72-2.64-.28 0-.58-.18-.66-.4-.13-.33-.8-.4-3.75-.4-2.94 0-3.6.07-3.74.4-.12.32-.7.4-2.87.4-2.4 0-2.78.07-3.18.54-.58.68-1.15.68-1.73 0-.58-.68-1.16-.68-1.74 0-.3.34-.78.53-1.36.53-.5 0-1.05.18-1.24.4-.18.22-.54.4-.8.4s-.62.2-.8.4c-.18.23-.54.4-.8.4-.23 0-.78.37-1.2.8-.86.9-2.1 1.1-2.4.37-.14-.4-.2-.4-.64 0-.27.24-.65.44-.85.44-.52 0-2.66 2.16-2.66 2.7 0 .24-.17.6-.38.76-.2.18-.43.83-.47 1.44-.08 1-.17 1.13-.83 1.2l-.73.1v3.14c0 2.48.08 3.23.4 3.5.56.46.56 3.16 0 3.37-.26.1-.4.5-.4 1.16 0 .58-.18 1.17-.4 1.35-.23.2-.4.78-.4 1.37v1.04h1.32c.96 0 1.46.14 1.8.5.27.3.8.56 1.15.6.48.08.7.3.77.73.13.93 1 1.64 2 1.64 1.23 0 2.32 1.15 2.32 2.45 0 .6.14 1 .4 1.1.26.1.4.53.4 1.25s.13 1.14.4 1.24c.22.07.4.3.4.52 0 .2-.18.45-.4.54-.32.12-.4.7-.4 2.94 0 2.23-.08 2.82-.4 2.94-.23.08-.4.43-.4.76s-.2.76-.4.94c-.3.25-.4.9-.4 2.53 0 1.94.06 2.25.6 2.77.35.32.82.58 1.05.58.23 0 .56.18.75.4.18.22.54.4.8.4s.62-.18.8-.4c.18-.22.55-.4.8-.4.26 0 .62-.18.8-.4.46-.54 3.3-.55 3.74-.02.17.22.58.43.9.47.32.05.58.27.58.5 0 .58-3.08.72-3.4.13-.3-.53-1.44-.54-1.64 0-.1.2-.46.4-.83.4-.38 0-.68.1-.68.26 0 .14.2.27.47.27.25 0 .64.12.86.25.33.2.27.4-.38 1.07-.43.45-.98.8-1.22.8-.55 0-1.6 1.1-1.6 1.67 0 .23-.2.57-.42.76-.22.2-.37.6-.33.9.06.45.3.58 1.23.64.7.05 1.2.24 1.3.47.2.54 2.9.53 3.13-.03.1-.27.54-.4 1.34-.4.72 0 1.3.16 1.5.4.2.23.75.4 1.25.4.56 0 .96-.15 1.06-.4.17-.45 1.58-.55 1.84-.12.32.52-1.02 1.6-2 1.6-.5 0-1.12.2-1.4.44-.44.4-.53.4-.95.02-.43-.4-.52-.36-1.12.35-.75.9-1.2.98-1.6.3-.24-.43-.26-.43-.43 0-.14.38-.5.48-1.6.48-1.48 0-2.2.45-1.9 1.2.1.26.5.4 1.2.4.6 0 1.18.17 1.37.4.23.28.85.4 2 .4 1.48 0 1.72-.07 2.4-.8.55-.56 1.04-.8 1.63-.8.46 0 1.12-.24 1.46-.53.34-.3 1-.54 1.48-.54.47 0 1-.18 1.2-.4.75-.9 2.32.15 1.7 1.14-.16.25-.54.5-.85.55-.3.04-.7.25-.88.47-.18.2-.6.38-.93.38-.34 0-.68.18-.77.4-.08.22-.46.4-.84.4-.38 0-.76.18-.85.4-.08.22-.43.4-.78.4-.34 0-.72.17-.84.38-.12.2-.5.42-.88.47-.4.06-.7.3-.76.63-.2 1-.6 1.26-1.16.76-.48-.43-.53-.42-.9.06-.2.28-.38.6-.4.7 0 .4 2.6.23 2.94-.2.42-.5 1.87-.53 1.87-.03 0 .45-1.13 1.5-1.63 1.5-.22 0-.8.42-1.3.94-.53.53-1.18.93-1.53.93-.48 0-.63.15-.63.66 0 .36-.16.75-.37.87-.2.12-.42.5-.47.88-.07.52-.27.7-.9.75-1.4.14-1.6.27-1.1.8.24.28.44.73.45 1 0 .3.37.82.8 1.18.46.4.8.93.8 1.28 0 .43.15.6.5.6.3 0 .95.43 1.48.95l.96.94h4.28c3.56 0 4.3-.07 4.44-.4.1-.26.5-.4 1.15-.4.65 0 1.16-.2 1.48-.54.26-.3.72-.54 1-.54.3 0 .67-.18.84-.4.2-.27.42-.32.7-.15.32.2.26.4-.4 1.07-.42.44-.97.8-1.2.8-.25 0-.8.37-1.2.8-.43.45-1.05.8-1.37.8-.32 0-.66.2-.74.42-.08.22-.37.4-.65.4s-.78.24-1.12.53c-.34.3-.78.54-.97.54-.2 0-.6.2-.9.47-.65.56-.75 2.34-.13 2.57.22.1.4.47.4.84 0 .38.18.76.4.84.22.1.4.42.4.74 0 .33.42 1 .93 1.5l.93.9L64 124.3c-1.34 1.33-1.72 1.57-2.55 1.57-1.16 0-1.5.58-.8 1.36.4.44.44.63.17 1.06-.52.82.43 1.58 2 1.58.78 0 1.43.16 1.73.43.45.42.5.42.65 0 .14-.35.62-.42 2.92-.42 2.1 0 2.82-.1 3.08-.4.23-.3.86-.4 2.18-.4 1.4 0 1.88-.1 2-.4.1-.26.5-.4 1.15-.4.66 0 1.16-.2 1.48-.54.32-.35.83-.54 1.5-.54.63 0 1.04-.14 1.14-.4.1-.26.52-.4 1.2-.4.6 0 1.18-.17 1.38-.4.18-.23.77-.4 1.34-.4.64 0 1.05-.14 1.15-.4.08-.22.46-.4.84-.4.36 0 .74-.18.83-.4.08-.22.36-.4.62-.4.25 0 .74-.25 1.08-.54.34-.3.82-.53 1.07-.53.26 0 .62-.18.8-.4.18-.23.54-.4.8-.4s.62-.2.8-.4c.2-.23.6-.4.94-.4.34 0 .68-.2.76-.4.1-.23.47-.4.84-.4.38 0 .76-.2.84-.4.1-.23.38-.4.67-.4.28 0 .92-.43 1.42-.95.5-.5 1.13-.93 1.4-.93s1.8-1.32 3.42-2.94c2.8-2.8 2.98-2.93 4.05-2.93 1.03 0 1.13.06 1.2.73.07.52.26.76.67.82.32.04.73.25.9.47.18.2.55.37.83.37.28 0 .7.24.96.54.26.3.72.54 1.02.54.3 0 .85.36 1.2.8.38.43.94.8 1.28.8.34 0 .68.18.76.4.1.23.5.52.82.52.32 0 .88.26 1.25.57l.97.96-1.83 1.73c-5.2 4.92-11.42 8.95-18.1 12.07-6.66 3.12-13.97 4.88-20.9 5.83-7.14.72-14.54.55-21.6-.77-7.03-1.32-13.7-3.8-19.58-7.07zm9.97-35.43c-.23-.13-.42-.48-.42-.77 0-.3-.36-.88-.8-1.3-.44-.45-.8-1.02-.8-1.3 0-.26-.42-.9-.94-1.4-.5-.5-.92-1.12-.92-1.4 0-.27-.12-.42-.27-.33-.42.27-.3 1.93.14 2.1.22.1.4.4.4.7 0 .3.25.76.54 1 .3.26.54.7.55 1 0 .3.36.85.8 1.2.43.37.8.9.8 1.17 0 .28.26.8.6 1.14l.6.63.08-1.1c.07-.8-.03-1.17-.33-1.33zm8.4 1.8c.54-.58.57-.68.18-.83-.47-.18-1.84.9-1.6 1.28.23.4.8.2 1.42-.45zM43.54 84.63c.32-.18.4-.8.4-3.03 0-2.24.1-2.83.4-2.96.27-.1.4-.5.4-1.16 0-.57.18-1.15.4-1.34.52-.42.52-1.17.03-1.6-.22-.16-.43-.57-.47-.9-.07-.44-.3-.6-1-.66-.78-.07-1.1.1-2.33 1.33l-1.43 1.42v2.18c0 1.83-.1 2.24-.54 2.65-.73.67-.68.96.4 2 .52.5.94 1.1.94 1.32 0 .22.45.86 1 1.43l1 1.02.2-.73c.1-.4.37-.84.6-.97zm-.66-14.9c0-.15-.24-.27-.52-.27-.3 0-.6.12-.7.27-.08.15.14.26.53.26.37 0 .68-.13.68-.27zm1.87-.4c0-.37-.12-.67-.27-.67-.15 0-.27.3-.27.66 0 .37.13.67.28.67.15 0 .27-.3.27-.68zm1.6-.8c0-.38-.12-.68-.26-.68-.3 0-.38.9-.1 1.16.3.3.35.22.35-.48zm-6.08-5.62c-.1-.4-.94-.32-1.08.1-.1.24.07.33.5.27.35-.05.6-.2.57-.36zm31.87 46.37c-.1-.16-.06-.42.1-.57.33-.33.85-.05.85.47 0 .45-.7.52-.96.1zm20.65-5.77c-.38-.36-.2-.93.27-.84.26.05.47.26.47.46 0 .43-.47.67-.75.38zm-.9-1.82c-.24-.62.26-1.07.66-.6.25.3.23.46-.1.72-.3.27-.42.25-.56-.12zm-.97-1.64c-.25-.25.1-.9.47-.9.38 0 .72.65.47.9-.1.1-.3.16-.47.16-.17 0-.38-.07-.47-.16zm-.9-4.5c-.24-.63 0-1.34.5-1.44.37-.07.47.1.47.87 0 .68-.12.95-.4.95-.24 0-.5-.17-.57-.38zm-22.97-4.18c-.28-.45.34-.96.7-.6.32.32.13.9-.3.9-.12 0-.3-.14-.4-.3zm-3.33-1.57c-.74-.5.1-.86 1.77-.77 1.18.06 1.57.18 1.57.48s-.37.43-1.47.48c-.8.04-1.65-.05-1.87-.2zm4.2.07c-.3-.3-.22-1.3.13-1.64.85-.86 2.13.2 1.55 1.28-.26.52-1.3.74-1.68.37zm4.7-3.14c-.34-.35-.6-.9-.6-1.2 0-.38-.18-.57-.53-.57-.3 0-.94-.42-1.44-.93-.5-.52-1.13-.94-1.4-.94-.63-.02-1.83-1.22-1.6-1.6.33-.53 1.4-.27 2.15.52.43.44.98.8 1.23.8.62 0 2.66 2.03 2.66 2.65 0 .27.17.65.4.83.47.4.52 1.07.05 1.07-.18 0-.6-.3-.93-.64zm18.3.47c-.1-.1-.2-.8-.2-1.57 0-1.05.13-1.5.54-1.87.4-.37.53-.82.53-1.88 0-1.03.1-1.45.42-1.56.72-.28.36-1.36-.5-1.46-1.43-.16-.32-1.92 1.23-1.92.5 0 1.07-.18 1.26-.4.2-.22.76-.4 1.28-.4.76 0 1.15-.2 1.98-1.08.56-.6 1.02-1.3 1.02-1.54 0-.26.38-.8.84-1.2.56-.5.87-1.04.96-1.73.07-.56.3-1.2.5-1.43.22-.25.38-1 .38-1.8 0-.9.13-1.43.37-1.57.2-.12.42-.52.47-.9.05-.36.27-.65.5-.65.58 0 .72 2.28.14 2.6-.3.17-.4.68-.4 2.05 0 1.3-.13 1.93-.4 2.16-.24.2-.42.75-.42 1.26 0 .7-.22 1.14-.93 1.83-.53.5-.95 1.13-.95 1.4 0 .6-1.14 1.66-1.8 1.66-.3 0-.62.2-.7.4-.08.23-.4.4-.73.4-.73 0-1.84 1.06-1.84 1.76 0 .3-.36.85-.8 1.2-.74.62-.8.8-.8 2.6 0 1.35-.12 1.97-.4 2.13-.2.1-.4.5-.45.87-.1.64-.73 1-1.1.63zm2.6-16.43c-.2-.33.4-.82.73-.6.12.06.2.3.2.5 0 .46-.68.52-.94.1zm2.73-2.3c-.1-.1-.18-.55-.18-1.02s-.24-1.13-.54-1.47c-.3-.34-.53-.82-.53-1.08 0-.25-.17-.53-.4-.62-.5-.2-.52-1.48 0-1.67.6-.23 1.74 1.18 1.74 2.2 0 .46.2 1 .4 1.18.4.34.54 1.5.24 2.25-.17.45-.43.54-.72.25zm-34.34-1.03c-.12-.22-.58-.5-1-.62-.55-.14-.83-.4-.9-.82-.04-.35-.45-.97-.9-1.38-.8-.72-.8-.78-.38-1.26.4-.46.42-.54.04-.85-.36-.3-.36-.4-.03-.77.2-.23.43-.73.48-1.1.08-.57.24-.67 1.2-.74.62-.06 1.26-.27 1.44-.48 1.05-.53 2.6-.5 3.93-.53 1.18-.04 2.4 0 3.53.3.7.2 1.37.5 1.96.9.4.3 1.07 1.1 1.07 1.1l-.76.78c-.88.93-1.27.98-1.96.3-.5-.5-.5-.5-.93 0-.23.27-.65.5-.93.5-.27 0-.65.18-.83.4-.2.22-.55.4-.8.4-.26 0-.62.18-.8.4-.2.22-.55.4-.8.4-.27 0-.63.18-.8.4-.2.22-.63.4-.98.4s-.63.12-.63.27c0 .15.66.27 1.47.27 1.76 0 2.12.45 1.16 1.46-.74.78-2.46.94-2.84.26zm2.17-4.3c.18-.2-.6-1.17-.95-1.17-.26 0-.3.9-.04 1.16.24.23.76.23 1 0zm36.3-2.68c.1-.6.9-.67.9-.1 0 .22-.23.45-.5.5-.36.07-.47-.04-.4-.4zm-.84-1.56c-.27-.32-.25-.43.1-.57.64-.24 1.1.26.6.66-.28.24-.44.22-.7-.1zM55.86 57c-.54-1.44.54-3.05 2.07-3.05.57 0 1.1-.2 1.4-.53.4-.46.8-.54 2.95-.54 2.35 0 2.53.04 3.3.75 1 .9.7 1.4-.8 1.4-.64 0-1.05.14-1.15.4-.08.2-.44.4-.8.4-.36 0-.72.17-.8.4-.1.22-.46.4-.84.4-.4 0-.76.18-.85.4-.08.22-.48.4-.9.4-.4 0-.88-.18-1.07-.4-.18-.22-.56-.4-.84-.4-.28 0-.58.18-.66.4-.2.52-.8.5-1-.02z"/></g></svg>