<?xml version="1.0" standalone="no"?>
<!DOCTYPE svg PUBLIC "-//W3C//DTD SVG 20010904//EN"
 "http://www.w3.org/TR/2001/REC-SVG-20010904/DTD/svg10.dtd">
<svg version="1.0" xmlns="http://www.w3.org/2000/svg"
 width="600.000000pt" height="600.000000pt" viewBox="0 0 600.000000 600.000000"
 preserveAspectRatio="xMidYMid meet">
<metadata>
Created by potrace 1.11, written by Peter Selinger 2001-2013
</metadata>
<g transform="translate(0.000000,600.000000) scale(0.100000,-0.100000)"
fill="#000000" stroke="none">
<path d="M3097 5160 c-19 -16 -46 -30 -59 -30 -13 0 -33 -7 -44 -15 -10 -8
-36 -15 -57 -15 -22 0 -52 -8 -67 -17 -26 -15 -30 -15 -53 0 -22 14 -27 15
-38 1 -10 -13 -14 -13 -28 0 -14 13 -19 13 -35 0 -31 -22 -62 -17 -85 14 -17
24 -22 25 -40 15 -12 -7 -31 -13 -44 -13 -27 0 -64 -32 -77 -65 -15 -40 -78
-42 -132 -3 -13 10 -23 7 -52 -15 -25 -20 -42 -26 -59 -22 -20 5 -26 2 -31
-20 -7 -28 -26 -25 -26 4 0 10 -6 24 -14 31 -8 6 -16 20 -18 31 -5 35 -20 21
-40 -36 -13 -41 -16 -61 -8 -70 8 -9 2 -14 -25 -18 -23 -4 -54 -22 -86 -51
-28 -25 -57 -46 -64 -46 -22 0 -47 -37 -40 -59 5 -17 2 -21 -14 -21 -11 0 -23
5 -26 10 -9 15 -35 12 -35 -5 0 -28 -43 -97 -66 -106 -27 -9 -30 -19 -12 -37
8 -8 5 -13 -13 -21 -14 -5 -31 -16 -39 -26 -7 -9 -30 -25 -50 -35 -37 -19
-120 -102 -120 -120 0 -15 16 -12 30 5 14 17 125 21 135 5 3 -5 -1 -10 -9 -10
-9 0 -50 -32 -91 -71 l-75 -72 0 -61 c1 -38 6 -68 15 -80 20 -26 19 -86 -1
-115 -26 -37 -3 -47 35 -15 18 15 36 23 40 18 13 -15 41 -93 41 -114 0 -11 5
-20 10 -20 6 0 10 -23 10 -50 0 -55 18 -107 43 -129 10 -8 17 -28 17 -50 0
-20 9 -53 20 -74 11 -20 20 -54 20 -76 0 -22 6 -44 15 -51 19 -16 19 -34 0
-50 -19 -16 -19 -49 0 -74 8 -11 15 -34 15 -52 0 -17 7 -37 15 -44 8 -7 15
-21 15 -32 0 -21 26 -110 41 -140 5 -10 9 -31 9 -48 0 -30 -2 -36 -34 -97 -18
-36 -22 -143 -5 -160 6 -6 13 -48 16 -94 3 -46 9 -88 13 -94 5 -5 11 -27 15
-47 4 -20 16 -45 27 -55 27 -24 68 -107 68 -136 0 -14 7 -30 15 -37 8 -7 15
-20 15 -29 0 -9 7 -25 15 -35 8 -11 15 -31 15 -44 0 -13 13 -40 30 -58 16 -19
33 -46 36 -59 3 -14 10 -25 14 -25 4 0 11 -11 14 -25 4 -14 20 -31 41 -41 39
-18 51 -44 35 -74 -12 -23 4 -52 60 -105 18 -16 50 -68 73 -114 29 -59 62
-106 115 -162 l75 -80 -6 -73 c-8 -87 -37 -149 -81 -170 -17 -8 -59 -40 -94
-71 -38 -32 -73 -55 -86 -55 -13 0 -40 -13 -61 -30 -29 -23 -48 -30 -81 -30
-37 0 -45 -4 -56 -27 -8 -17 -24 -30 -43 -34 -16 -4 -54 -19 -82 -33 -29 -14
-60 -26 -68 -26 -24 0 -86 -33 -82 -44 2 -6 70 -45 153 -86 232 -117 490 -194
774 -232 139 -18 519 -15 650 6 537 85 965 287 1355 639 54 50 58 56 45 72 -8
10 -33 26 -55 37 -68 32 -99 50 -120 68 -20 17 -32 24 -133 75 -32 16 -56 35
-62 50 -7 19 -17 25 -40 25 -32 0 -53 -16 -192 -147 -36 -35 -71 -63 -77 -63
-6 0 -25 -13 -44 -30 -19 -16 -45 -34 -58 -40 -13 -5 -31 -14 -39 -19 -8 -5
-77 -39 -152 -76 -76 -37 -141 -71 -144 -76 -3 -5 -13 -9 -23 -9 -10 0 -24 -7
-31 -15 -7 -8 -25 -15 -40 -15 -15 0 -41 -7 -56 -15 -16 -8 -36 -15 -45 -15
-9 0 -30 -7 -45 -15 -16 -8 -38 -15 -49 -15 -11 0 -29 -6 -40 -14 -11 -7 -36
-17 -55 -21 -19 -4 -39 -11 -45 -15 -5 -4 -39 -10 -74 -13 -35 -3 -68 -10 -74
-16 -6 -6 -49 -11 -97 -11 -57 0 -93 -5 -105 -14 -15 -11 -22 -11 -44 0 -14 8
-40 14 -56 14 -45 0 -77 25 -69 56 4 13 1 31 -6 39 -19 23 -4 45 29 45 22 0
45 14 91 57 l61 56 -30 31 c-16 17 -35 42 -40 56 -6 14 -15 32 -20 40 -57 96
-50 124 44 171 112 57 119 61 148 86 16 12 34 23 41 23 18 0 69 57 57 64 -5 4
-35 -7 -66 -24 -30 -16 -66 -30 -78 -30 -13 0 -32 -7 -43 -15 -14 -11 -52 -14
-161 -15 l-143 0 -46 35 c-25 19 -50 35 -55 35 -5 0 -9 7 -9 15 0 8 -13 29
-28 47 -27 32 -52 79 -52 98 0 5 14 10 32 12 27 3 35 11 57 55 17 34 36 57 53
64 15 6 35 20 45 31 9 11 32 26 49 33 41 17 63 52 39 62 -9 3 -32 -2 -51 -11
-19 -9 -51 -16 -70 -16 -28 0 -35 3 -32 18 3 13 12 16 37 14 25 -2 34 2 38 17
3 13 52 43 154 93 82 40 151 79 154 87 12 30 -53 59 -70 31 -3 -6 -16 -10 -28
-10 -12 0 -39 -9 -60 -20 -20 -11 -46 -20 -56 -20 -11 0 -34 -12 -51 -26 -40
-34 -102 -42 -154 -20 -21 9 -49 16 -61 16 -28 0 -47 21 -36 39 5 7 30 16 57
18 27 3 55 10 62 16 8 6 17 5 27 -3 13 -11 21 -8 45 15 22 21 33 25 42 17 10
-8 29 -5 73 10 67 22 85 34 85 54 0 18 -40 18 -76 0 -24 -13 -32 -13 -62 0
-44 18 -82 18 -118 -1 -36 -19 -61 -19 -97 0 -15 8 -43 17 -62 21 -21 4 -35
12 -35 21 0 27 40 93 68 110 37 23 72 55 72 65 0 5 -12 14 -27 20 -26 11 -27
12 -6 15 12 2 27 11 33 19 16 18 31 18 66 -1 31 -16 56 -18 92 -9 32 9 27 21
-18 44 -46 24 -108 26 -136 5 -10 -8 -25 -15 -33 -15 -8 0 -23 -8 -33 -17 -18
-16 -21 -16 -56 2 -74 38 -82 51 -82 130 0 65 8 95 40 156 4 8 11 56 15 105 3
49 11 99 18 112 8 17 8 25 0 30 -6 4 -14 26 -18 50 -4 23 -11 42 -16 42 -5 0
-9 9 -9 20 0 11 -6 35 -14 54 -13 32 -38 47 -99 61 -19 4 -32 16 -41 35 -15
38 -93 80 -147 80 -37 0 -39 1 -39 33 1 17 7 43 15 57 8 14 15 36 15 50 0 14
7 34 15 44 19 25 19 67 0 113 -10 24 -15 70 -15 139 0 98 1 103 22 106 16 2
25 14 34 44 18 61 38 95 81 134 53 49 83 64 96 51 18 -18 54 -13 84 12 31 26
152 87 172 87 7 0 30 10 51 21 l38 22 28 -22 27 -21 32 20 c25 15 50 20 111
20 50 1 88 6 104 15 17 10 58 14 132 15 91 0 114 -3 150 -22 60 -30 86 -55
114 -110 29 -57 33 -161 8 -209 -14 -27 -14 -33 0 -53 10 -16 11 -27 4 -34 -7
-7 -6 -16 1 -30 6 -11 11 -32 11 -47 0 -18 9 -31 30 -43 16 -9 30 -20 30 -24
0 -4 36 -48 80 -98 44 -50 80 -97 80 -104 0 -8 7 -19 15 -26 8 -7 15 -27 15
-45 0 -18 7 -38 15 -45 9 -8 15 -29 15 -55 0 -24 7 -56 15 -71 8 -16 15 -49
15 -74 0 -53 26 -110 72 -157 36 -37 58 -42 58 -14 0 10 7 24 15 31 8 7 15 18
15 26 0 20 39 84 82 133 21 24 41 55 44 68 4 13 10 23 14 23 4 0 10 11 14 23
3 13 31 47 61 76 52 49 57 52 77 39 31 -21 34 -38 6 -38 -13 0 -33 -6 -43 -14
-18 -13 -18 -14 6 -21 13 -4 32 -15 42 -23 16 -14 19 -14 27 -2 6 8 10 21 10
28 0 28 17 7 49 -61 43 -91 51 -102 62 -85 14 21 10 64 -8 97 -17 30 -17 32 0
62 11 20 17 52 17 93 0 54 -4 66 -25 86 -14 13 -25 27 -25 31 0 4 11 10 25 13
21 5 25 12 25 40 0 19 -8 48 -17 64 -14 25 -15 33 -4 61 8 17 17 31 22 31 5 0
13 9 20 21 9 18 7 26 -17 50 -22 23 -25 32 -16 41 7 7 12 19 12 27 0 8 7 22
16 32 15 17 15 20 -10 49 -14 18 -29 44 -32 58 -3 15 -11 38 -19 52 -12 22
-11 29 2 52 15 24 15 31 -6 95 -15 45 -34 80 -59 105 -27 29 -33 41 -24 50 8
8 7 18 -5 40 -14 22 -15 30 -5 40 19 19 14 43 -14 69 -15 13 -40 42 -55 63
-27 36 -28 41 -14 62 8 13 15 30 15 38 0 17 -30 36 -56 36 -9 0 -32 11 -50 25
-36 27 -64 31 -93 13 -15 -9 -26 -8 -54 5 -19 9 -44 17 -55 17 -12 0 -24 5
-27 10 -3 6 -26 10 -50 10 -24 0 -47 -4 -50 -10 -3 -5 -18 -10 -32 -10 -25 0
-25 1 -9 19 12 13 16 32 14 58 l-3 38 -77 3 c-56 2 -86 -2 -108 -13 -35 -18
-47 -14 -60 21 -6 14 -25 33 -43 44 -19 11 -39 31 -45 45 -15 33 -44 32 -85
-5z m-1166 -1923 c-13 -13 -26 -3 -16 12 3 6 11 8 17 5 6 -4 6 -10 -1 -17z
m229 -194 c0 -20 -3 -24 -11 -16 -7 7 -9 19 -6 27 10 24 17 19 17 -11z m-60
-25 c0 -16 -3 -19 -11 -11 -6 6 -8 16 -5 22 11 17 16 13 16 -11z m-75 -18 c-3
-5 -10 -10 -16 -10 -5 0 -9 5 -9 10 0 6 7 10 16 10 8 0 12 -4 9 -10z m70 -123
c0 -1 9 -19 19 -40 19 -36 19 -40 3 -67 -9 -15 -17 -39 -17 -52 0 -13 -5 -29
-11 -35 -6 -6 -13 -51 -16 -100 -3 -61 -11 -102 -25 -132 l-21 -45 -33 40
c-19 21 -34 43 -34 48 0 5 -16 26 -35 48 l-36 39 21 33 c15 25 20 50 20 103
l0 70 55 53 c48 44 60 51 83 45 15 -4 27 -7 27 -8z m-25 -642 c59 -86 90 -135
90 -144 0 -4 7 -14 15 -21 19 -15 21 -83 3 -78 -7 2 -21 19 -30 37 -9 18 -26
43 -37 55 -12 12 -21 26 -21 30 0 4 -16 35 -35 67 -21 36 -35 73 -35 92 1 35
-3 38 50 -38z m420 -212 c0 -12 -33 -43 -47 -43 -19 0 -16 27 5 39 20 12 42
14 42 4z"/>
<path d="M2660 3603 c-14 -3 -32 -11 -40 -18 -8 -7 -32 -15 -52 -19 -22 -4
-44 -16 -53 -29 -30 -43 -10 -125 20 -84 15 21 26 21 63 0 28 -16 31 -16 55 0
15 9 33 17 40 17 8 0 20 7 27 15 7 8 20 15 30 15 10 0 23 7 30 15 7 8 27 15
46 15 44 0 52 17 21 47 -21 22 -36 26 -93 28 -38 2 -80 1 -94 -2z"/>
<path d="M4063 3398 c2 -7 10 -13 17 -13 7 0 15 6 18 13 2 7 -5 12 -18 12 -13
0 -20 -5 -17 -12z"/>
<path d="M2696 3366 c-58 -20 -71 -28 -82 -56 -8 -17 -11 -42 -8 -55 3 -13 1
-26 -5 -30 -7 -4 -1 -19 19 -43 16 -20 30 -42 30 -49 0 -7 15 -19 34 -27 18
-8 37 -19 40 -25 12 -19 64 -12 93 13 36 31 23 48 -45 56 -36 5 -42 8 -27 14
11 4 69 32 130 62 100 49 111 52 126 38 20 -18 41 -10 73 25 23 25 12 42 -48
74 -33 17 -62 22 -151 24 -94 2 -120 -1 -179 -21z m94 -122 c0 -18 -14 -18
-30 1 -16 19 -3 40 16 24 8 -6 14 -18 14 -25z"/>
<path d="M4100 3334 c0 -9 5 -14 12 -12 18 6 21 28 4 28 -9 0 -16 -7 -16 -16z"/>
<path d="M3881 3243 c-7 -13 0 -33 25 -79 19 -34 34 -73 34 -87 0 -30 18 -45
31 -26 13 20 11 54 -5 91 -8 18 -20 48 -27 66 -15 42 -44 59 -58 35z"/>
<path d="M4142 3153 c-12 -27 -22 -62 -22 -79 0 -18 -7 -45 -15 -60 -8 -16
-15 -37 -15 -46 0 -9 -11 -29 -24 -45 -13 -15 -30 -42 -39 -59 -22 -43 -83
-94 -111 -94 -13 0 -37 -7 -52 -15 -16 -8 -38 -15 -50 -15 -22 0 -54 -28 -54
-47 0 -6 11 -14 24 -17 30 -7 40 -31 21 -50 -8 -8 -15 -31 -15 -52 0 -20 -9
-52 -21 -70 -22 -36 -24 -124 -3 -131 22 -7 56 69 61 137 4 45 11 72 25 86 11
12 27 37 36 55 13 25 35 43 87 69 50 25 75 45 86 67 8 17 27 45 42 63 15 17
27 40 27 51 0 11 5 30 12 42 7 12 15 49 19 82 3 33 12 74 19 91 13 30 8 84 -8
84 -4 0 -17 -21 -30 -47z"/>
<path d="M3857 2983 c-12 -11 -8 -23 8 -23 8 0 15 7 15 15 0 16 -12 20 -23 8z"/>
<path d="M2905 2579 c-9 -13 21 -46 49 -55 11 -4 37 -20 56 -35 19 -16 40 -29
47 -29 7 0 19 -15 26 -32 16 -38 42 -62 56 -53 14 8 -37 102 -69 127 -55 42
-130 88 -144 88 -8 0 -18 -5 -21 -11z"/>
<path d="M2937 2343 c-12 -11 -8 -61 6 -66 37 -12 71 30 47 58 -13 16 -42 20
-53 8z"/>
<path d="M2777 2304 c-15 -15 8 -24 64 -24 44 0 60 3 57 13 -5 13 -109 23
-121 11z"/>
<path d="M2900 2235 c0 -8 7 -15 15 -15 8 0 15 7 15 15 0 8 -7 15 -15 15 -8 0
-15 -7 -15 -15z"/>
<path d="M3725 2109 c-9 -28 20 -63 30 -36 9 21 3 49 -12 54 -6 2 -14 -6 -18
-18z"/>
<path d="M3756 1935 c-3 -9 1 -18 10 -22 19 -7 28 2 21 22 -8 19 -23 19 -31 0z"/>
<path d="M3794 1876 c-8 -22 3 -33 18 -18 9 9 9 15 0 24 -9 9 -13 7 -18 -6z"/>
<path d="M3820 1805 c0 -8 7 -15 15 -15 8 0 15 7 15 15 0 8 -7 15 -15 15 -8 0
-15 -7 -15 -15z"/>
<path d="M3087 1604 c-13 -13 -7 -24 14 -24 11 0 19 5 17 12 -5 14 -22 21 -31
12z"/>
</g>
</svg>
